<?xml version="1.0" encoding="UTF-8" standalone="no"?>
<svg xmlns="http://www.w3.org/2000/svg" width="80px" height="80px" baseProfile="tiny" version="1.1" xmlns:xlink="http://www.w3.org/1999/xlink" viewBox="0 0 80 80">
 <defs>
  <linearGradient id="linearGradient6421" y2="275.58" gradientUnits="userSpaceOnUse" x2="588.97" gradientTransform="matrix(0.18777762,0,0,0.18777762,35.264094,4.0437865)" y1="263.33" x1="540.06">
   <stop stop-color="#1d2331" offset="0"/>
   <stop stop-color="#1d2331" stop-opacity="0.48148148" offset="0.30072"/>
   <stop stop-color="#1d2331" stop-opacity="0" offset="1"/>
  </linearGradient>
  <linearGradient id="linearGradient6429" y2="159.48" gradientUnits="userSpaceOnUse" x2="526.91" gradientTransform="matrix(0.18777762,0,0,0.18777762,35.639651,4.0437865)" y1="309.96" x1="504.44">
   <stop stop-color="#FFF" offset="0"/>
   <stop stop-color="#FFF" offset="0.8358"/>
   <stop stop-color="#d3e2db" stop-opacity="0" offset="1"/>
  </linearGradient>
  <radialGradient id="radialGradient7524" gradientUnits="userSpaceOnUse" cy="133.32" cx="423.48" gradientTransform="matrix(0.37093284,0.05737393,-0.0362998,0.23468483,-133.77019,-23.414146)" r="56.153">
   <stop stop-color="#904a30" offset="0"/>
   <stop stop-color="#521614" offset="1"/>
  </radialGradient>
  <linearGradient id="linearGradient7527" y2="159.48" gradientUnits="userSpaceOnUse" x2="526.91" gradientTransform="matrix(0.18777762,0,0,0.18777762,-60.67208,6.7211423)" y1="309.96" x1="504.44">
   <stop stop-color="#FFF" offset="0"/>
   <stop stop-color="#FFF" offset="0.8358"/>
   <stop stop-color="#d3e2db" stop-opacity="0" offset="1"/>
  </linearGradient>
  <linearGradient id="linearGradient4709" y2="-67.51" gradientUnits="userSpaceOnUse" x2="-18.179" gradientTransform="matrix(-1.131122,0.15246685,0.14799603,1.1652921,5.578153,-6.3356455)" y1="-44.927" x1="-15.454">
   <stop stop-color="#00a700" offset="0"/>
   <stop stop-color="#deffd6" offset="1"/>
  </linearGradient>
  <linearGradient id="linearGradient4720" y2="-46.611" gradientUnits="userSpaceOnUse" x2="7.7118" gradientTransform="matrix(1.1407628,0,0,1.1752242,-7.9126756,-5.235247)" y1="-13.354" x1="-6.9694">
   <stop stop-color="#f9f50d" offset="0"/>
   <stop stop-color="#f9f5ad" offset="1"/>
  </linearGradient>
  <linearGradient id="linearGradient4704" y2="-67.51" gradientUnits="userSpaceOnUse" x2="-18.179" gradientTransform="matrix(1.1407628,0,0,1.1752242,-7.9126756,-5.235247)" y1="-40.307" x1="-16.423">
   <stop stop-color="#ff001c" offset="0"/>
   <stop stop-color="#f9f5ad" offset="1"/>
  </linearGradient>
  <radialGradient id="radialGradient6427" gradientUnits="userSpaceOnUse" cy="153.22" cx="647.78" gradientTransform="matrix(0.81611592,-0.05516523,0.05533828,0.81867603,109.84752,67.058099)" r="66.47">
   <stop stop-color="#4b2f1a" offset="0"/>
   <stop stop-color="#231d18" offset="1"/>
  </radialGradient>
  <radialGradient id="radialGradient6423" gradientUnits="userSpaceOnUse" cy="178.76" cx="545.56" gradientTransform="matrix(0.20593861,0.03430409,-0.02267352,0.13611652,28.573661,-7.1208783)" r="113.74">
   <stop stop-color="#FFF" offset="0"/>
   <stop stop-color="#c4c4ba" offset="1"/>
  </radialGradient>
  <linearGradient id="linearGradient6433" y2="58.148" gradientUnits="userSpaceOnUse" x2="450.6" y1="168.15" x1="542.96">
   <stop stop-color="#1d2331" offset="0"/>
   <stop stop-color="#1d2331" offset="0.78608"/>
   <stop stop-color="#1d2331" stop-opacity="0" offset="1"/>
  </linearGradient>
  <linearGradient id="linearGradient6437" y2="263.89" gradientUnits="userSpaceOnUse" x2="480.64" gradientTransform="matrix(0.18777762,0,0,0.18777762,34.768441,4.7872657)" y1="272.89" x1="495.76">
   <stop stop-color="#4b2f1a" offset="0"/>
   <stop stop-color="#231d18" offset="1"/>
  </linearGradient>
  <linearGradient id="linearGradient4784" y2="-71.498" gradientUnits="userSpaceOnUse" x2="-4.3285" y1="-110.24" x1="-7.5749">
   <stop stop-color="#f9f50d" offset="0"/>
   <stop stop-color="#f9f5ad" offset="1"/>
  </linearGradient>
  <linearGradient id="linearGradient6435" y2="241.01" gradientUnits="userSpaceOnUse" x2="512.24" gradientTransform="translate(1.833406,1.1044347)" y1="207.23" x1="414.37">
   <stop stop-color="#1d2331" stop-opacity="0.53846157" offset="0"/>
   <stop stop-color="#1d2331" stop-opacity="0.53846157" offset="0.58351"/>
   <stop stop-color="#1d2331" stop-opacity="0" offset="1"/>
  </linearGradient>
  <radialGradient id="radialGradient7537" gradientUnits="userSpaceOnUse" cy="178.76" cx="545.56" gradientTransform="matrix(0.20593861,0.03430409,-0.02267352,0.13611652,-67.73807,-4.4435225)" r="113.74">
   <stop stop-color="#FFF" offset="0"/>
   <stop stop-color="#c4c4ba" offset="1"/>
  </radialGradient>
  <linearGradient id="linearGradient6439" y2="90.469" gradientUnits="userSpaceOnUse" x2="492.29" y1="191.43" x1="499.31">
   <stop stop-color="#000" offset="0"/>
   <stop stop-color="#000" stop-opacity="0" offset="1"/>
  </linearGradient>
  <linearGradient id="linearGradient6419" y2="40.359" gradientUnits="userSpaceOnUse" x2="78.913" gradientTransform="translate(-0.638407,-0.4046913)" y1="40.359" x1="2.0712">
   <stop stop-color="#7ebef1" offset="0"/>
   <stop stop-color="#4787f7" offset="1"/>
  </linearGradient>
  <linearGradient id="linearGradient7542" y2="275.58" gradientUnits="userSpaceOnUse" x2="588.97" gradientTransform="matrix(0.18777762,0,0,0.18777762,-61.047637,6.7211423)" y1="263.33" x1="540.06">
   <stop stop-color="#1d2331" offset="0"/>
   <stop stop-color="#1d2331" stop-opacity="0.48148148" offset="0.30072"/>
   <stop stop-color="#1d2331" stop-opacity="0" offset="1"/>
  </linearGradient>
  <linearGradient id="linearGradient6443" y2="78.754" gradientUnits="userSpaceOnUse" gradientTransform="matrix(0.97268406,0,0,0.97268406,71.851376,24.483251)" x2="39.5" x1="39.5">
   <stop stop-color="#FFF" offset="0"/>
   <stop stop-color="#FFF" stop-opacity="0" offset="1"/>
  </linearGradient>
  <linearGradient id="linearGradient6441" y2="65.919" gradientUnits="userSpaceOnUse" x2="39.5" gradientTransform="matrix(0.97268406,0,0,0.97268406,37.644325,30.114564)" y1="0.7837" x1="39.5">
   <stop stop-color="#FFF" offset="0"/>
   <stop stop-color="#FFF" stop-opacity="0" offset="0.7362"/>
  </linearGradient>
  <linearGradient id="linearGradient7504" y2="263.89" gradientUnits="userSpaceOnUse" x2="480.64" gradientTransform="matrix(0.18777762,0,0,0.18777762,-61.54329,7.4646215)" y1="272.89" x1="495.76">
   <stop stop-color="#4b2f1a" offset="0"/>
   <stop stop-color="#231d18" offset="1"/>
  </linearGradient>
  <linearGradient id="linearGradient4713" y2="-67.51" gradientUnits="userSpaceOnUse" x2="-18.179" gradientTransform="matrix(1.1407628,0,0,1.1752242,-7.9126756,-5.235247)" y1="-40.307" x1="-16.423">
   <stop stop-color="#f9f50d" offset="0"/>
   <stop stop-color="#f9f5ad" offset="1"/>
  </linearGradient>
  <linearGradient id="linearGradient4896" y2="-46.611" gradientUnits="userSpaceOnUse" x2="7.7118" gradientTransform="matrix(1.1407628,0,0,1.1752242,32.106796,82.177505)" y1="-13.354" x1="-6.9694">
   <stop stop-color="#f9f50d" offset="0"/>
   <stop stop-color="#f9f5ad" offset="1"/>
  </linearGradient>
  <linearGradient id="linearGradient4894" y2="-67.51" gradientUnits="userSpaceOnUse" x2="-18.179" gradientTransform="matrix(1.1407628,0,0,1.1752242,32.106796,82.177505)" y1="-40.307" x1="-16.423">
   <stop stop-color="#ff001c" offset="0"/>
   <stop stop-color="#f9f5ad" offset="1"/>
  </linearGradient>
  <linearGradient id="linearGradient4892" y2="-67.51" gradientUnits="userSpaceOnUse" x2="-18.179" gradientTransform="matrix(-1.131122,0.15246685,0.14799603,1.1652921,45.597626,81.017498)" y1="-44.927" x1="-15.454">
   <stop stop-color="#00a700" offset="0"/>
   <stop stop-color="#deffd6" offset="1"/>
  </linearGradient>
  <linearGradient id="linearGradient4890" y2="40.359" gradientUnits="userSpaceOnUse" x2="78.913" gradientTransform="translate(-0.07282844,0.10063317)" y1="40.359" x1="2.0712">
   <stop stop-color="#7ebef1" offset="0"/>
   <stop stop-color="#4787f7" offset="1"/>
  </linearGradient>
  <radialGradient id="radialGradient6431" gradientUnits="userSpaceOnUse" cy="133.32" cx="423.48" gradientTransform="matrix(0.37093284,0.05737393,-0.0362998,0.23468483,-37.458462,-26.091502)" r="56.153">
   <stop stop-color="#904a30" offset="0"/>
   <stop stop-color="#521614" offset="1"/>
  </radialGradient>
  <linearGradient id="linearGradient7486" y2="242.67" gradientUnits="userSpaceOnUse" x2="702.19" y1="242.67" x1="651.08">
   <stop stop-color="#1d2331" offset="0"/>
   <stop stop-color="#1d2331" stop-opacity="0.48148148" offset="0.30072"/>
   <stop stop-color="#1d2331" stop-opacity="0" offset="1"/>
  </linearGradient>
  <linearGradient id="linearGradient4898" y2="-71.498" gradientUnits="userSpaceOnUse" x2="-4.3285" gradientTransform="translate(39.987762,87.415611)" y1="-110.24" x1="-7.5749">
   <stop stop-color="#f9f50d" offset="0"/>
   <stop stop-color="#f9f5ad" offset="1"/>
  </linearGradient>
  <filter id="filter4444">
   <feGaussianBlur id="feGaussianBlur4446" stdDeviation="1.0860389"/>
  </filter>
  <filter id="filter4508" y="-0.10823841" width="1.172496" x="-0.086248021" height="1.2164768">
   <feGaussianBlur id="feGaussianBlur4510" stdDeviation="0.98799331"/>
  </filter>
  <filter id="filter4546">
   <feGaussianBlur id="feGaussianBlur4548" stdDeviation="0.87043978"/>
  </filter>
  <filter id="filter6012-3" color-interpolation-filters="sRGB">
   <feGaussianBlur id="feGaussianBlur6014-3" stdDeviation="1.6863543"/>
  </filter>
  <filter id="filter45662-3" color-interpolation-filters="sRGB">
   <feGaussianBlur id="feGaussianBlur45664-9" stdDeviation="0.6050545"/>
  </filter>
  <filter id="filter45658-1" color-interpolation-filters="sRGB">
   <feGaussianBlur id="feGaussianBlur45660-6" stdDeviation="0.89205147"/>
  </filter>
  <filter id="filter45588-9" color-interpolation-filters="sRGB">
   <feGaussianBlur id="feGaussianBlur45590-8" stdDeviation="1.3557291"/>
  </filter>
  <filter id="filter45514-9" color-interpolation-filters="sRGB">
   <feGaussianBlur id="feGaussianBlur45516-4" stdDeviation="0.52925153"/>
  </filter>
  <filter id="filter45474-9" color-interpolation-filters="sRGB">
   <feGaussianBlur id="feGaussianBlur45476-9" stdDeviation="3.1792165"/>
  </filter>
  <filter id="filter45444-2" color-interpolation-filters="sRGB" width="1.1322888" y="-0.11506036" x="-0.066144422" height="1.2301207">
   <feGaussianBlur id="feGaussianBlur45446-4" stdDeviation="0.82974352"/>
  </filter>
  <filter id="filter45416-5" color-interpolation-filters="sRGB">
   <feGaussianBlur id="feGaussianBlur45418-4" stdDeviation="1.5840091"/>
  </filter>
  <filter id="filter8300">
   <feGaussianBlur id="feGaussianBlur8302" stdDeviation="1.0755538"/>
  </filter>
  <filter id="filter7558">
   <feGaussianBlur id="feGaussianBlur7560" stdDeviation="0.53799002"/>
  </filter>
 </defs>
 <path id="path4390" stroke-linejoin="miter" d="m-30.628-58.403s2.0274-2.1739,3.641-3.4953,4.3444-3.4526,6.1649-3.5379c1.8205-0.08525,2.2756,0.55413,2.648,1.6624,0.37238,1.1083,1.1171,2.0034,3.8065,1.9181,2.6894-0.08525,5.2133-1.1509,5.6684-2.2165,0.45513-1.0656-0.041375-3.1116-3.3928-3.1543-3.3514-0.04263-3.5169-0.25575-3.8893-0.80988-0.37238-0.55413,0.62063-2.0886,3.5997-3.1969,2.979-1.1083,6.9924-2.8559,6.9924-2.8559s-1.655-1.1083-3.4342-2.1739c-1.7288-1.0355-4.5513-3.1116-6.2063-2.6854-1.655,0.42625-1.9033,0.46888-2.1101,1.5771-0.21111,1.131-0.53788,1.9608-2.1929,2.3018s-4.8409,0.341-5.9581-0.42625c-1.1171-0.76726-1.655-2.728,0.12413-3.3248,1.7791-0.59675,2.5239-0.5115,3.9307-0.682s1.655-0.55413,1.655-1.023c0-0.46888-1.8162-1.0598-4.5513-2.046-2.4825-0.89513-5.9994-1.5771-5.9994-1.5771l-6.6201,2.2165,0.45513,18.798z" stroke-opacity="0.07843137" stroke="#000" stroke-linecap="butt" stroke-width="1.15786529px" fill="url(#linearGradient4713)"/>
 <path id="path4520" filter="url(#filter4546)" transform="matrix(1.1407628,0,0,1.1752242,-7.9126756,-5.235247)" d="m27.037-46.15s-2.0022-1.6036-3.5506-2.5349c-1.5484-0.93135-4.1573-2.419-5.7491-2.2839-1.5918,0.13511-1.9168,0.72632-2.1181,1.7037-0.20133,0.9774-0.74986,1.8173-3.0969,2.0513-2.347,0.23393-4.6584-0.37813-5.1717-1.2255-0.51323-0.84733-0.30753-2.63,2.6008-3.0471s3.0287-0.61574,3.2912-1.1256c0.2625-0.50987-0.77002-1.6916-3.4817-2.2879-2.7117-0.59626-6.3931-1.6143-6.3931-1.6143s1.3162-1.1233,2.745-2.2247c1.3884-1.0703,3.6125-3.1429,5.0981-2.9715,1.4856,0.17142,1.7061,0.17915,2.0082,1.0907,0.30834,0.93018,0.68398,1.5931,2.1602,1.6926,1.4762,0.09949,4.2454-0.26283,5.1317-1.0372,0.88631-0.77439,1.1374-2.4899-0.47492-2.791-1.6123-0.30115-2.2502-0.14453-3.4918-0.1284-1.2416,0.01617-1.4997-0.2793-1.5515-0.6749-0.05176-0.3956,1.4617-1.1007,3.7301-2.2438,2.059-1.0376,5.0406-2.0129,5.0406-2.0129l5.9988,1.1172,11.703,7.0022z" fill="#000"/>
 <path id="path4410" stroke-linejoin="miter" d="m21.406-62.09s-2.284-1.8846-4.0504-2.9791-4.7425-2.8428-6.5584-2.684c-1.8159,0.15879-2.1866,0.85359-2.4163,2.0023-0.22967,1.1487-0.85541,2.1358-3.5328,2.4107-2.6774,0.27492-5.3142-0.44438-5.8997-1.4402-0.58548-0.9958-0.35082-3.0909,2.9669-3.5811,3.3177-0.49019,3.455-0.72364,3.7544-1.3229,0.29945-0.59922-0.87841-1.988-3.9718-2.6888-3.0934-0.70073-7.293-1.8972-7.293-1.8972s1.5015-1.3201,3.1314-2.6145c1.5838-1.2578,4.121-3.6936,5.8157-3.4922,1.6947,0.20145,1.9462,0.21054,2.2909,1.2818,0.35175,1.0932,0.78025,1.8723,2.4642,1.9892,1.684,0.11692,4.843-0.30888,5.854-1.219,1.0111-0.91008,1.2975-2.9262-0.54177-3.2801-1.8393-0.35392-2.567-0.16985-3.9833-0.1509-1.4163,0.019-1.7108-0.32825-1.7699-0.79316-0.059046-0.46492,1.6674-1.2936,4.2552-2.637,2.3488-1.2194,5.7501-2.3657,5.7501-2.3657l6.8432,1.313,14.112,7.1821z" stroke-opacity="0.07843137" stroke="#000" stroke-linecap="butt" stroke-width="1.15786529px" fill="url(#linearGradient4709)"/>
 <path id="path4414" d="m-10.322-61.403s-2.4779,1.3473-4.4051,2.9782-3.7856,3.1909-4.061,4.1836c-0.27532,0.99272-0.34415,1.3473,0.55064,1.7727,0.89479,0.42546,2.6844,0,3.3727,0s1.5831,0.07091,2.5467,0.07091c0.96362,0,2.6155,0.42545,3.1662,1.2055,0.55064,0.78,0.82596,1.7018,0.55064,2.6236-0.27532,0.92182-0.82596,1.9855-2.5467,2.4818-1.7207,0.49636-3.1669,1.0683-4.8869,0.78-1.7193-0.28822-3.3709-1.5654-3.7168-1.9855-0.43852-0.53257-1.18-1.2456-1.8943-1.2764-1.1691-0.05029-2.0289,0.07091-2.7861,0.70909-0.90404,0.76202-1.9961,2.4109-2.7532,3.7582-0.75713,1.3473-2.822,6.1691-2.822,6.1691s5.8505,0.49636,8.6037,0.85091,6.8141,1.1345,7.5024,1.8436c0.6883,0.70909,1.5143,1.2055,1.3078,1.9855-0.20649,0.78-1.3766,1.4891-2.8908,1.9145-1.5143,0.42545-2.6844,1.1345-3.235,2.2691-0.51368,1.0584-0.57024,3.3565,0.48181,4.2545,1.3238,1.1299,3.1662,1.9145,5.3687,1.9145,2.2026,0,4.5428-0.78,5.3687-1.7018,0.82596-0.92182,1.4454-1.3473,1.2389-2.6236-0.20649-1.2764-1.0324-1.9855-0.75713-2.7654,0.27532-0.78,0.55064-1.4891,2.0649-1.7018,1.5143-0.21273,5.2311,0.14182,7.9842,1.4182,2.7532,1.2764,8.879,5.1054,8.879,5.1054s0.55064-5.8854,1.5143-8.0836c0.96362-2.1982,1.6519-3.6164,2.7532-4.2545,1.1013-0.63818,1.9272-0.78,2.9597-0.35454,1.0324,0.42545,2.1337,1.7018,2.9597,2.4109,0.82596,0.70909,2.1337,1.1345,3.9921,1.3473,2.8056,0.32115,4.5324-0.5247,5.2311-1.8436,0.57032-1.0767,0.52511-3.4716-0.000004-4.3964-0.42423-0.74711-1.7896-1.9145-3.648-1.9145s-3.1662,0.28364-4.4051,0.35455-3.0285-0.14182-3.4415-0.99273c-0.41298-0.85091-0.34415-2.4109,0.27532-3.1909s1.1701-1.8436,2.6155-2.9782c1.4454-1.1345,4.1986-2.9782,4.1986-2.9782s-2.9597-1.9145-6.1258-3.0491c-3.1662-1.1345-7.7089-2.9782-9.1543-1.9855-1.4454,0.99273-0.82596,2.1273-0.27532,2.9782,0.55064,0.85091,0.6883,1.56-0.48181,2.4109-1.1701,0.85091-3.648,1.56-5.9882,1.2055-2.3402-0.35454-5.0246-1.2764-5.0934-2.7654-0.06883-1.4891,1.2389-3.0491,2.6844-3.5454,1.4454-0.49636,2.4779-0.35454,2.5467-1.3473,0.068834-0.99273-1.5831-1.4891-3.0285-1.7727-1.3674-0.26833-4.061-0.78-7.5024-1.2055-2.4612-0.30426-4.8181-0.28364-4.8181-0.28364z" fill-opacity="0"/>
 <path id="path4470" filter="url(#filter4508)" transform="matrix(1.1407628,0,0,1.1752242,-7.9126756,-5.235247)" d="m-19.912-42.572s1.7772-1.8498,3.1918-2.9741c1.4145-1.1244,3.8083-2.9379,5.4042-3.0104,1.5959-0.07254,1.9948,0.47151,2.3213,1.4145,0.32643,0.94302,0.97929,1.7047,3.3368,1.6321,2.3575-0.07254,4.57-0.97929,4.969-1.886,0.39897-0.90675-0.03627-2.6477-2.9741-2.684-2.9379-0.03627-3.0829-0.21762-3.4094-0.68913-0.32643-0.47151,0.54405-1.7772,3.1555-2.7202,2.6114-0.94302,6.1296-2.4301,6.1296-2.4301s-1.4508-0.94302-3.0104-1.8498c-1.5155-0.8811-3.9897-2.6477-5.4405-2.285s-1.6684,0.39897-1.8498,1.342c-0.18506,0.96233-0.47151,1.6684-1.9223,1.9586-1.4508,0.29016-4.2436,0.29016-5.2229-0.3627-0.97929-0.65286-1.4508-2.3213,0.10881-2.8291,1.5596-0.50778,2.2125-0.43524,3.4456-0.58032,1.2332-0.14508,1.4508-0.47151,1.4508-0.87048s-1.5921-0.9018-3.9897-1.741c-2.1762-0.76167-5.2591-1.342-5.2591-1.342l-5.8032,1.886,0.39897,15.995z" fill="#000"/>
 <path id="path4764" d="M-11.906-99.625l-36.125,14.719,11.312,4.75-0.031-1.782,6.625-2.218s3.517,0.698,6,1.594c2.735,0.986,4.531,1.562,4.531,2.031s-0.249,0.86-1.656,1.031-2.127,0.091-3.906,0.688c-1.779,0.596-1.242,2.545-0.125,3.312s4.282,0.779,5.937,0.438c1.655-0.342,2.008-1.182,2.219-2.313,0.207-1.108,0.439-1.136,2.094-1.563,1.655-0.426,4.49,1.653,6.2185,2.688,1.3832,0.828,2.455,1.505,2.9687,1.844l0.4376-0.125h0.125c0.376-0.328,1.4452-1.258,2.8124-2.344,1.5838-1.258,4.1178-3.701,5.8126-3.5,1.6947,0.201,1.9678,0.21,2.3124,1.281,0.3518,1.093,0.7536,1.883,2.4376,2,1.6839,0.117,4.8642-0.308,5.8752-1.218,1.011-0.911,1.277-2.928-0.563-3.282-1.839-0.354-2.552-0.175-3.9685-0.156-1.4163,0.019-1.7222-0.348-1.7813-0.812-0.059-0.465,1.6623-1.282,4.2498-2.626,2.349-1.219,5.75-2.374,5.75-2.374l6.844,1.312,2.781,1.438,9.5-6.376-48.687-8.437z" fill="url(#linearGradient4784)"/>
 <path id="path4416" filter="url(#filter4444)" transform="matrix(1.1407628,0,0,1.1752242,-5.5319859,-3.936689)" d="m-1.2208-44.897s-2.1721,1.1464-3.8615,2.5341-3.3185,2.7151-3.5599,3.5599c-0.24135,0.84471-0.30168,1.1464,0.48269,1.5084,0.78438,0.36202,2.3531,0,2.9565,0,0.60336,0,1.3877,0.06034,2.2325,0.06034,0.84471,0,2.2928,0.36202,2.7755,1.0257,0.48269,0.6637,0.72404,1.4481,0.48269,2.2325-0.24135,0.78438-0.72404,1.6894-2.2325,2.1118-1.5084,0.42236-2.7761,0.90906-4.2839,0.6637-1.5071-0.24525-2.955-1.332-3.2582-1.6894-0.38441-0.45316-1.0344-1.0599-1.6606-1.0861-1.0248-0.04279-1.7786,0.06034-2.4423,0.60337-0.79249,0.6484-1.7498,2.0514-2.4135,3.1978s-2.4738,5.2493-2.4738,5.2493,5.1286,0.42236,7.5421,0.72404,5.9733,0.96538,6.5767,1.5688c0.60337,0.60337,1.3274,1.0257,1.1464,1.6894-0.18101,0.6637-1.2067,1.2671-2.5341,1.6291-1.3274,0.36202-2.3531,0.96538-2.8358,1.9308-0.45029,0.90058-0.49987,2.8561,0.42236,3.6202,1.1604,0.96144,2.7755,1.6291,4.7063,1.6291s3.9822-0.6637,4.7063-1.4481c0.72404-0.78438,1.2671-1.1464,1.0861-2.2325-0.18101-1.0861-0.90505-1.6894-0.6637-2.3531s0.48269-1.2671,1.8101-1.4481c1.3274-0.18101,4.5856,0.12067,6.999,1.2067,2.4135,1.0861,7.7834,4.3442,7.7834,4.3442s0.48269-5.0079,1.3274-6.8784c0.84471-1.8704,1.4481-3.0772,2.4135-3.6202,0.96538-0.54303,1.6894-0.6637,2.5945-0.30168,0.90505,0.36202,1.8704,1.4481,2.5945,2.0514,0.72404,0.60336,1.8704,0.96538,3.4995,1.1464,2.4594,0.27327,3.9732-0.44647,4.5856-1.5688,0.49995-0.91618,0.46032-2.954-0.000003-3.7409-0.37188-0.63572-1.5688-1.6291-3.1978-1.6291-1.6291,0-2.7755,0.24135-3.8615,0.30168-1.0861,0.06034-2.6548-0.12067-3.0168-0.84471-0.36202-0.72404-0.30168-2.0514,0.24135-2.7151s1.0257-1.5688,2.2928-2.5341c1.2671-0.96538,3.6805-2.5341,3.6805-2.5341s-2.5945-1.6291-5.37-2.5945c-2.7755-0.96538-6.7577-2.5341-8.0248-1.6894-1.2671,0.84471-0.72404,1.8101-0.24135,2.5341,0.48269,0.72404,0.60337,1.3274-0.42236,2.0514-1.0257,0.72404-3.1978,1.3274-5.2493,1.0257-2.0514-0.30168-4.4046-1.0861-4.4649-2.3531-0.06034-1.2671,1.0861-2.5945,2.3531-3.0168,1.2671-0.42236,2.1721-0.30168,2.2325-1.1464,0.06034-0.84471-1.3877-1.2671-2.6548-1.5084-1.1987-0.22832-3.5599-0.6637-6.5767-1.0257-2.1575-0.2589-4.2236-0.24135-4.2236-0.24135z" fill="#000"/>
 <path id="path4448" stroke="#000" d="m-30.628-58.403s2.0274-2.1739,3.641-3.4953,4.3444-3.4526,6.1649-3.5379c1.8205-0.08525,2.2756,0.55413,2.648,1.6624,0.37238,1.1083,1.1171,2.0034,3.8065,1.9181,2.6894-0.08525,5.2133-1.1509,5.6684-2.2165,0.45513-1.0656-0.041375-3.1116-3.3928-3.1543-3.3514-0.04263-3.5169-0.25575-3.8893-0.80988-0.37238-0.55413,0.62063-2.0886,3.5997-3.1969,2.979-1.1083,6.9924-2.8559,6.9924-2.8559s-1.655-1.1083-3.4342-2.1739c-1.7288-1.0355-4.5513-3.1116-6.2063-2.6854-1.655,0.42625-1.9033,0.46888-2.1101,1.5771-0.21111,1.131-0.53788,1.9608-2.1929,2.3018s-4.8409,0.341-5.9581-0.42625c-1.1171-0.76726-1.655-2.728,0.12413-3.3248,1.7791-0.59675,2.5239-0.5115,3.9307-0.682s1.655-0.55413,1.655-1.023c0-0.46888-1.8162-1.0598-4.5513-2.046-2.4825-0.89513-5.9994-1.5771-5.9994-1.5771l-6.6201,2.2165,0.45513,18.798z" stroke-opacity="0.07843138" fill="url(#linearGradient4704)"/>
 <path id="path3612" stroke-linejoin="miter" d="m-10.322-61.403s-2.4779,1.3473-4.4051,2.9782-3.7856,3.1909-4.061,4.1836c-0.27532,0.99272-0.34415,1.3473,0.55064,1.7727,0.89479,0.42546,2.6844,0,3.3727,0s1.5831,0.07091,2.5467,0.07091c0.96362,0,2.6155,0.42545,3.1662,1.2055,0.55064,0.78,0.82596,1.7018,0.55064,2.6236-0.27532,0.92182-0.82596,1.9855-2.5467,2.4818-1.7207,0.49636-3.1669,1.0683-4.8869,0.78-1.7193-0.28822-3.3709-1.5654-3.7168-1.9855-0.43852-0.53257-1.18-1.2456-1.8943-1.2764-1.1691-0.05029-2.0289,0.07091-2.7861,0.70909-0.90404,0.76202-1.9961,2.4109-2.7532,3.7582-0.75713,1.3473-2.822,6.1691-2.822,6.1691s5.8505,0.49636,8.6037,0.85091,6.8141,1.1345,7.5024,1.8436c0.6883,0.70909,1.5143,1.2055,1.3078,1.9855-0.20649,0.78-1.3766,1.4891-2.8908,1.9145-1.5143,0.42545-2.6844,1.1345-3.235,2.2691-0.51368,1.0584-0.57024,3.3565,0.48181,4.2545,1.3238,1.1299,3.1662,1.9145,5.3687,1.9145,2.2026,0,4.5428-0.78,5.3687-1.7018,0.82596-0.92182,1.4454-1.3473,1.2389-2.6236-0.20649-1.2764-1.0324-1.9855-0.75713-2.7654,0.27532-0.78,0.55064-1.4891,2.0649-1.7018,1.5143-0.21273,5.2311,0.14182,7.9842,1.4182,2.7532,1.2764,8.879,5.1054,8.879,5.1054s0.55064-5.8854,1.5143-8.0836c0.96362-2.1982,1.6519-3.6164,2.7532-4.2545,1.1013-0.63818,1.9272-0.78,2.9597-0.35454,1.0324,0.42545,2.1337,1.7018,2.9597,2.4109,0.82596,0.70909,2.1337,1.1345,3.9921,1.3473,2.8056,0.32115,4.5324-0.5247,5.2311-1.8436,0.57032-1.0767,0.52511-3.4716-0.000004-4.3964-0.42423-0.74711-1.7896-1.9145-3.648-1.9145s-3.1662,0.28364-4.4051,0.35455-3.0285-0.14182-3.4415-0.99273c-0.41298-0.85091-0.34415-2.4109,0.27532-3.1909s1.1701-1.8436,2.6155-2.9782c1.4454-1.1345,4.1986-2.9782,4.1986-2.9782s-2.9597-1.9145-6.1258-3.0491c-3.1662-1.1345-7.7089-2.9782-9.1543-1.9855-1.4454,0.99273-0.82596,2.1273-0.27532,2.9782,0.55064,0.85091,0.6883,1.56-0.48181,2.4109-1.1701,0.85091-3.648,1.56-5.9882,1.2055-2.3402-0.35454-5.0246-1.2764-5.0934-2.7654-0.06883-1.4891,1.2389-3.0491,2.6844-3.5454,1.4454-0.49636,2.4779-0.35454,2.5467-1.3473,0.068834-0.99273-1.5831-1.4891-3.0285-1.7727-1.3674-0.26833-4.061-0.78-7.5024-1.2055-2.4612-0.30426-4.8181-0.28364-4.8181-0.28364z" stroke-opacity="0.086758" stroke="#000" stroke-linecap="butt" stroke-width="1.15786529px" fill="url(#linearGradient4720)"/>
 <g id="g4879" transform="translate(-95.542027,-1.7820098)">
  <path id="path7412" d="m78.84,40.46c0,28.46-9.954,38.42-38.42,38.42-28.46,0-38.42-9.956-38.42-38.42,0-28.46,9.956-38.42,38.42-38.42,28.47,0,38.42,9.956,38.42,38.42z" fill="url(#linearGradient4890)"/>
  <path id="path4613" filter="url(#filter4546)" d="m55.32,5.148c-0.9717,0.3896-0.9488-0.7723-1.865-0.2969-2.588,1.343-4.309,2.16-4.25,2.625,0.05905,0.4649,0.3649,0.8315,1.781,0.8125,1.416-0.01896,2.129-0.2289,3.969,0.125,1.839,0.3539,1.542,2.371,0.5313,3.281-1.011,0.9101-4.16,1.336-5.844,1.219-1.684-0.1169-2.117-0.8756-2.469-1.969-0.3447-1.071-0.5865-1.08-2.281-1.281-1.695-0.2015-4.229,2.211-5.813,3.469-1.63,1.294-3.125,2.625-3.125,2.625s4.188,1.206,7.281,1.906c3.093,0.7007,4.268,2.088,3.969,2.688-0.2994,0.5992-0.4323,0.8223-3.75,1.313-3.318,0.4902-3.554,2.598-2.969,3.594,0.5855,0.9958,3.229,1.712,5.906,1.438,2.677-0.2749,3.302-1.258,3.531-2.406,0.2297-1.149,0.5904-1.841,2.406-2,1.816-0.1588,4.796,1.593,6.563,2.688,1.766,1.095,4.063,2.969,4.063,2.969l10.11-10.3c-3.49-6.95-8.87-10.49-17.74-12.5z" fill="#000"/>
  <path id="path4615" d="m51.15,2.572c-2.118,1.093-3.521,1.806-3.469,2.219,0.05905,0.4649,0.3649,0.8315,1.781,0.8125,1.416-0.01896,2.129-0.1977,3.969,0.1563,1.839,0.3539,1.574,2.371,0.5625,3.281-1.011,0.9101-4.191,1.336-5.875,1.219-1.684-0.1169-2.086-0.9068-2.438-2-0.3447-1.071-0.6178-1.08-2.313-1.281-1.695-0.2015-4.229,2.242-5.813,3.5-1.63,1.294-3.125,2.594-3.125,2.594s4.188,1.206,7.281,1.906c3.093,0.7007,4.268,2.088,3.969,2.688-0.2994,0.5992-0.4323,0.8223-3.75,1.313-3.318,0.4902-3.554,2.598-2.969,3.594,0.5855,0.9958,3.229,1.712,5.906,1.438,2.677-0.2749,3.302-1.258,3.531-2.406,0.2297-1.149,0.5904-1.841,2.406-2,1.816-0.1588,4.796,1.593,6.563,2.688,1.766,1.095,4.063,2.969,4.063,2.969l11.59-11.41c-4.35-6.473-11.39-9.984-21.87-11.28z" fill="url(#linearGradient4892)"/>
  <path id="path4617" d="m29.7,26.01s-2.478,1.347-4.405,2.978-3.786,3.191-4.061,4.184c-0.2753,0.9927-0.3441,1.347,0.5506,1.773,0.8948,0.4255,2.684,0,3.373,0,0.6883,0,1.583,0.07091,2.547,0.07091,0.9636,0,2.616,0.4255,3.166,1.205,0.5506,0.78,0.826,1.702,0.5506,2.624-0.2753,0.9218-0.826,1.985-2.547,2.482-1.721,0.4964-3.167,1.068-4.887,0.78-1.719-0.2882-3.371-1.565-3.717-1.985-0.4385-0.5326-1.18-1.246-1.894-1.276-1.169-0.05029-2.029,0.07091-2.786,0.7091-0.904,0.762-1.996,2.411-2.753,3.758-0.7571,1.347-2.822,6.169-2.822,6.169s5.851,0.4964,8.604,0.8509,6.814,1.135,7.502,1.844c0.6883,0.7091,1.514,1.205,1.308,1.985-0.2065,0.78-1.377,1.489-2.891,1.915-1.514,0.4255-2.684,1.135-3.235,2.269-0.5137,1.058-0.5702,3.357,0.4818,4.255,1.324,1.13,3.166,1.915,5.369,1.915s4.543-0.78,5.369-1.702c0.826-0.9218,1.445-1.347,1.239-2.624-0.2065-1.276-1.032-1.985-0.7571-2.765,0.2753-0.78,0.5506-1.489,2.065-1.702,1.514-0.2127,5.231,0.1418,7.984,1.418,2.753,1.276,8.879,5.105,8.879,5.105s0.5506-5.885,1.514-8.084c0.9636-2.198,1.652-3.616,2.753-4.255,1.101-0.6382,1.927-0.78,2.96-0.3545,1.032,0.4255,2.134,1.702,2.96,2.411,0.826,0.7091,2.134,1.135,3.992,1.347,2.806,0.3211,4.532-0.5247,5.231-1.844,0.5703-1.077,0.5251-3.472-0.000003-4.396-0.4242-0.7471-1.79-1.915-3.648-1.915s-3.166,0.2836-4.405,0.3545c-1.239,0.07091-3.029-0.1418-3.441-0.9927-0.413-0.8509-0.3441-2.411,0.2753-3.191,0.6195-0.78,1.17-1.844,2.616-2.978,1.445-1.135,4.199-2.978,4.199-2.978s-2.96-1.915-6.126-3.049c-3.166-1.135-7.709-2.978-9.154-1.985-1.445,0.9927-0.826,2.127-0.2753,2.978,0.5506,0.8509,0.6883,1.56-0.4818,2.411-1.17,0.8509-3.648,1.56-5.988,1.205-2.34-0.3545-5.025-1.276-5.093-2.765-0.06883-1.489,1.239-3.049,2.684-3.545,1.445-0.4964,2.478-0.3545,2.547-1.347,0.06883-0.9927-1.583-1.489-3.029-1.773-1.367-0.2683-4.061-0.78-7.502-1.205-2.461-0.3043-4.818-0.2836-4.818-0.2836z" fill-opacity="0"/>
  <path id="path4619" filter="url(#filter4508)" d="M15.29,8.58c-5.493,3.49-7.648,7.63-9.47,15.21l-2.112,3.619,5.688,4.719s2.011-2.147,3.625-3.469c1.614-1.321,4.367-3.477,6.188-3.563,1.821-0.08525,2.253,0.5792,2.625,1.688,0.3724,1.108,1.123,1.992,3.813,1.906,2.689-0.08525,5.232-1.153,5.688-2.219,0.4551-1.066-0.05484-3.114-3.406-3.156-3.351-0.04263-3.503-0.2584-3.875-0.8125-0.3724-0.5541,0.6147-2.079,3.594-3.188,2.979-1.108,7-2.875,7-2.875s-1.658-1.091-3.438-2.156c-1.729-1.035-4.564-3.114-6.219-2.688-1.655,0.4263-1.918,0.4542-2.125,1.563-0.2111,1.131-0.5325,1.971-2.188,2.313-1.655,0.341-4.82,0.3298-5.938-0.4375-1.117-0.7673-1.654-2.716,0.125-3.313,1.779-0.5968,2.499-0.517,3.906-0.6875s1.656-0.5311,1.656-1-1.796-1.076-4.531-2.062c-0.4655-0.1678-0.09767,0.754-0.6059,0.6042z" fill="#000"/>
  <path id="path4621" d="M17.99,5.601c-7.56,3.3-12.07,9.089-14.28,18.06v0.625l5.688,4.719s2.011-2.179,3.625-3.5,4.367-3.446,6.188-3.531c1.821-0.08525,2.253,0.548,2.625,1.656,0.3724,1.108,1.123,2.023,3.813,1.938,2.689-0.08525,5.232-1.153,5.688-2.219,0.4551-1.066-0.05485-3.114-3.406-3.156-3.351-0.04263-3.503-0.2584-3.875-0.8125-0.3724-0.5541,0.6147-2.079,3.594-3.188,2.979-1.108,7-2.875,7-2.875s-1.658-1.091-3.438-2.156c-1.729-1.035-4.564-3.114-6.219-2.687-1.655,0.4263-1.918,0.4542-2.125,1.562-0.2111,1.131-0.5325,1.971-2.188,2.313-1.655,0.341-4.82,0.3298-5.938-0.4375-1.117-0.7673-1.654-2.716,0.125-3.312,1.779-0.5968,2.499-0.517,3.906-0.6875s1.656-0.5624,1.656-1.031c0-0.3314-0.9399-0.7315-2.438-1.281z" fill="url(#linearGradient4894)"/>
  <path id="path4625" filter="url(#filter4444)" transform="matrix(1.1407628,0,0,1.1752242,33.838207,83.692489)" d="m-1.221-44.9s-2.172,1.146-3.862,2.534c-1.689,1.388-3.319,2.715-3.56,3.56-0.2413,0.8447-0.3017,1.146,0.4827,1.508s2.353,0,2.956,0c0.6034,0,1.388,0.06034,2.232,0.06034,0.8447,0,2.293,0.362,2.775,1.026,0.4827,0.6637,0.724,1.448,0.4827,2.232-0.2413,0.7844-0.724,1.689-2.232,2.112-1.508,0.4224-2.776,0.9091-4.284,0.6637-1.507-0.2452-2.955-1.332-3.258-1.689-0.3844-0.4532-1.034-1.06-1.661-1.086-1.025-0.04279-1.779,0.06034-2.442,0.6034-0.7925,0.6484-1.75,2.051-2.413,3.198-0.6637,1.146-2.474,5.249-2.474,5.249s5.129,0.4224,7.542,0.724c2.413,0.3017,5.973,0.9654,6.577,1.569,0.6034,0.6034,1.327,1.026,1.146,1.689-0.181,0.6637-1.207,1.267-2.534,1.629s-2.353,0.9654-2.836,1.931c-0.4503,0.9006-0.4999,2.856,0.4224,3.62,1.16,0.9614,2.775,1.629,4.706,1.629s3.982-0.6637,4.706-1.448c0.724-0.7844,1.267-1.146,1.086-2.232s-0.905-1.689-0.6637-2.353c0.2413-0.6637,0.4827-1.267,1.81-1.448,1.327-0.181,4.586,0.1207,6.999,1.207,2.413,1.086,7.783,4.344,7.783,4.344s0.4827-5.008,1.327-6.878c0.8447-1.87,1.448-3.077,2.413-3.62,0.9654-0.543,1.689-0.6637,2.594-0.3017s1.87,1.448,2.594,2.051c0.724,0.6034,1.87,0.9654,3.5,1.146,2.459,0.2733,3.973-0.4465,4.586-1.569,0.4999-0.9162,0.4603-2.954-0.000003-3.741-0.3719-0.6357-1.569-1.629-3.198-1.629s-2.775,0.2413-3.862,0.3017c-1.086,0.06034-2.655-0.1207-3.017-0.8447s-0.3017-2.051,0.2413-2.715c0.543-0.6637,1.026-1.569,2.293-2.534,1.267-0.9654,3.681-2.534,3.681-2.534s-2.594-1.629-5.37-2.594c-2.775-0.9654-6.758-2.534-8.025-1.689-1.267,0.8447-0.724,1.81-0.2413,2.534s0.6034,1.327-0.4224,2.051c-1.026,0.724-3.198,1.327-5.249,1.026-2.051-0.3017-4.405-1.086-4.465-2.353-0.06034-1.267,1.086-2.594,2.353-3.017,1.267-0.4224,2.172-0.3017,2.232-1.146,0.06034-0.8447-1.388-1.267-2.655-1.508-1.199-0.2283-3.56-0.6637-6.577-1.026-2.157-0.2589-4.224-0.2413-4.224-0.2414z" fill="#000"/>
  <path id="path4627" stroke-linejoin="miter" d="m29.7,26.01s-2.478,1.347-4.405,2.978-3.786,3.191-4.061,4.184c-0.2753,0.9927-0.3441,1.347,0.5506,1.773,0.8948,0.4255,2.684,0,3.373,0,0.6883,0,1.583,0.07091,2.547,0.07091,0.9636,0,2.616,0.4255,3.166,1.205,0.5506,0.78,0.826,1.702,0.5506,2.624-0.2753,0.9218-0.826,1.985-2.547,2.482-1.721,0.4964-3.167,1.068-4.887,0.78-1.719-0.2882-3.371-1.565-3.717-1.985-0.4385-0.5326-1.18-1.246-1.894-1.276-1.169-0.05029-2.029,0.07091-2.786,0.7091-0.904,0.762-1.996,2.411-2.753,3.758-0.7571,1.347-2.822,6.169-2.822,6.169s5.851,0.4964,8.604,0.8509,6.814,1.135,7.502,1.844c0.6883,0.7091,1.514,1.205,1.308,1.985-0.2065,0.78-1.377,1.489-2.891,1.915-1.514,0.4255-2.684,1.135-3.235,2.269-0.5137,1.058-0.5702,3.357,0.4818,4.255,1.324,1.13,3.166,1.915,5.369,1.915s4.543-0.78,5.369-1.702c0.826-0.9218,1.445-1.347,1.239-2.624-0.2065-1.276-1.032-1.985-0.7571-2.765,0.2753-0.78,0.5506-1.489,2.065-1.702,1.514-0.2127,5.231,0.1418,7.984,1.418,2.753,1.276,8.879,5.105,8.879,5.105s0.5506-5.885,1.514-8.084c0.9636-2.198,1.652-3.616,2.753-4.255,1.101-0.6382,1.927-0.78,2.96-0.3545,1.032,0.4255,2.134,1.702,2.96,2.411,0.826,0.7091,2.134,1.135,3.992,1.347,2.806,0.3211,4.532-0.5247,5.231-1.844,0.5703-1.077,0.5251-3.472-0.000003-4.396-0.4242-0.7471-1.79-1.915-3.648-1.915s-3.166,0.2836-4.405,0.3545c-1.239,0.07091-3.029-0.1418-3.441-0.9927-0.413-0.8509-0.3441-2.411,0.2753-3.191,0.6195-0.78,1.17-1.844,2.616-2.978,1.445-1.135,4.199-2.978,4.199-2.978s-2.96-1.915-6.126-3.049c-3.166-1.135-7.709-2.978-9.154-1.985-1.445,0.9927-0.826,2.127-0.2753,2.978,0.5506,0.8509,0.6883,1.56-0.4818,2.411-1.17,0.8509-3.648,1.56-5.988,1.205-2.34-0.3545-5.025-1.276-5.093-2.765-0.06883-1.489,1.239-3.049,2.684-3.545,1.445-0.4964,2.478-0.3545,2.547-1.347,0.06883-0.9927-1.583-1.489-3.029-1.773-1.367-0.2683-4.061-0.78-7.502-1.205-2.461-0.3043-4.818-0.2836-4.818-0.2836z" stroke-opacity="0.086758" stroke="#000" stroke-linecap="butt" stroke-width="1.15786529px" fill="url(#linearGradient4896)"/>
  <path id="path4786" d="m40.41,2.031c-9.41,0-16.76,1.108-22.44,3.594,1.394,0.5142,2.438,0.9308,2.438,1.25,0,0.4689-0.2495,0.8607-1.656,1.031-1.407,0.1705-2.127,0.09075-3.906,0.6875-1.779,0.5968-1.242,2.545-0.125,3.313,1.117,0.7673,4.282,0.7785,5.938,0.4375,1.655-0.341,2.008-1.182,2.219-2.313,0.2069-1.108,0.4387-1.136,2.094-1.563,1.655-0.4263,4.49,1.652,6.219,2.688,1.383,0.8285,2.455,1.505,2.969,1.844l0.4375-0.125h0.125c0.3761-0.3276,1.445-1.258,2.813-2.344,1.584-1.258,4.118-3.701,5.813-3.5,1.695,0.2015,1.968,0.21,2.313,1.281,0.3517,1.093,0.7535,1.883,2.438,2,1.684,0.1169,4.864-0.3087,5.875-1.219,1.005-0.909,1.275-2.927-0.565-3.28-1.84-0.354-2.56-0.176-3.97-0.157-1.416,0.019-1.722-0.3476-1.781-0.8125-0.05135-0.4043,1.397-1.136,3.438-2.188-3.229-0.3962-6.785-0.625-10.69-0.625z" fill="url(#linearGradient4898)"/>
 </g>
 <g id="g3421" transform="translate(-131.51852,-29.861722)">
  <path id="path4471" opacity="0.2" d="m114.5,68.54c0,28.46-9.954,38.42-38.42,38.42-28.46,0-38.42-9.956-38.42-38.42,0-28.46,9.956-38.42,38.42-38.42,28.47,0,38.42,9.956,38.42,38.42z" fill="url(#linearGradient6441)"/>
  <g id="g10335" transform="translate(-34.207059,5.6313165)">
   <path id="path4464" opacity="0.5" d="m110.3,100.4c-28.3,0-38.3-9.848-38.42-37.93-0.000972,0.1644-0.0058,0.321-0.0058,0.4863,0,28.46,9.956,38.42,38.42,38.42,28.47,0,38.42-9.956,38.42-38.42,0-0.1654-0.005-0.322-0.006-0.4863-0.1148,28.09-10.11,37.93-38.42,37.93z"/>
   <path id="path4478" opacity="0.25" d="m110.3,24.48c-28.46,0-38.42,9.956-38.42,38.42,0,28.46,9.956,38.42,38.42,38.42,28.47,0,38.42-9.956,38.42-38.42,0-28.46-9.954-38.42-38.42-38.42zm0,75.87c-28,0-37.45-9.45-37.45-37.45s9.45-37.45,37.45-37.45,37.45,9.45,37.45,37.45-9.45,37.45-37.45,37.45z" fill="url(#linearGradient6443)"/>
  </g>
 </g>
 <path id="path5669" d="m78.549,40.076c0,28.465-9.9544,38.421-38.421,38.421-28.465,0-38.421-9.9564-38.421-38.421s9.9564-38.421,38.421-38.421c28.467,0,38.421,9.9564,38.421,38.421z" fill="#a8cff7"/>
 <path id="path7804" filter="url(#filter7558)" transform="matrix(1,0,0,0.99227728,0,0.13365998)" d="m22.624,17.307c-1.2399,0.03594-4.0983,0.7296-5.5,1.8438-1.3211,1.0501-2.8982,2.8273-3.5,4.5938-1.244,2.0965-1.1732,2.7869-1.3125,5.4062-0.18268,3.4345,0.21828,5.5125,0.4375,6.9375,0.14662,0.95304,2.4081,0.79322,2.7007,1.782-0.19269,1.1237,0.5357,1.7778,0.79235,2.2674,0.30986,0.59102-0.15751,0.85409,0.73335,0.92362s1.0131-0.01867,1.1681-0.0882c0.15493-0.06953,0.7243,0.38888,0.7243,0.38888s1.3134,0.745,1.8944,0.8493c0.58099,0.1043,0.4162-1.8,1.5007-1.8s1.6779-0.31874,2.5688-0.875c0.89086-0.55626,2.0212,2.8516,2.2924,2.052,0.0109-0.03211-0.87323-4.0224-0.86323-4.0548,0.72036,1.3279,2.8994,6.5191,4.7694,8.461,1.1375,1.1812,2.0404,2.3609,3.0312,3.4375-0.13988,0.57151-0.36605,1.141-0.53125,1.5312-0.63557,1.5015-1.6818,2.8599-2.375,3.7812-0.0459,0.01127-0.0937,0.03125-0.0937,0.03125-1.2324,1.9061-2.8937,4.3173-3.625,5.375-0.14392,0.17571-0.29142,0.34133-0.4375,0.5-1.1205,0.80825-1.6494,0.86739-2.7812,1.0938-1.1318,0.22636-1.8578,0.8633-2.2188,1.5312-0.25589,0.4735-0.407,0.98143-0.40625,1.375-0.05,0.49478,0.0561,0.8669,0.40625,0.875,0.75972,0.01756,2.858,0.01182,5.6875,0.125,2.1419,0.08568,3.3736,0.05708,4.2188-0.40625,0.49552-0.16008,0.8715-0.43075,1.1875-0.8125,0.75217-0.90868,1.7238-2.146,2.9688-3.8438,0.44483-0.60659,0.98042-1.5553,1.5625-2.5312,0.12906,0.62686,0.15908,1.233,0.0937,1.625-0.11318,0.67909,0.003,0.91046-0.5625,1.25-0.5659,0.33954-1.0312,0.5625-1.0312,0.5625s-0.65625,0.69591-0.65625,1.375,0.21193,1.3556,1.3438,1.4688c0.30379,0.03038,0.88469,0.06556,1.375,0.09375,0.002,0.0025,0.0312,0.03125,0.0312,0.03125h0.4375c1.2398,0.06306,2.5454,0.09375,3.125,0.09375,0.2566,0,0.47509-0.04168,0.65625-0.125,0.12507-0.04279,0.2814-0.1144,0.40625-0.21875,0.18416-0.15392,0.23138-0.22952,0.3125-0.3125,0.10964-0.0955,0.23057-0.19341,0.34375-0.25,0.36289-0.18144,0.56141-0.8918,0.75-1.625,1.5399,0.08281,3.5192,0.15625,3.7812,0.15625,0.21555,0,0.71882,0.0515,1.4688-0.3125,0.50703-0.2168,1.1043-0.57305,1.75-1.2188,1.1631-1.1631,1.733-1.6366,2.0938-2.1562,0.009-0.01195,0.0224-0.01924,0.0312-0.03125,0.0125-0.01853,0.0193-0.04373,0.0312-0.0625,0.10937-0.15776,0.21051-0.34262,0.28125-0.53125,0.33954-0.90545,1.1216-2.489,1.6875-3.2812,0.5659-0.79227,0.46955-0.32932,1.375-1.6875,2.0359-0.6467,4.4793-1.6271,6.5625-2.8438,0.90545,1.0186,0.99239,2.1494,1.2188,3.2812,0.22637,1.1318,0.58193,2.38,0.46875,3.625-0.0566,0.6225-0.19108,1.0726-0.375,1.4688-0.092,0.19807-0.20462,0.37858-0.3125,0.5625s-0.23057,0.36443-0.34375,0.5625c-0.45272,0.79227-1.3556,0.5633-1.4688,1.4688-0.11318,0.90545,0.22716,1.2542,0.90625,1.5938,0.33954,0.16977,1.7958,0.18159,3.2812,0.125,1.4855-0.05659,3.0219-0.19341,3.5312-0.25,1.0186-0.11318-0.0194-1.0142,0.0937-3.8438,0.11318-2.8295,1.125-3.6224,1.125-5.0938s-0.32512-0.44751-1.3438-2.9375c-0.50932-1.245-0.74176-1.7932-0.8125-2.6562-0.0177-0.21575-0.031-0.44619-0.0312-0.71875-0.00066-0.81769,0.0714-1.9651,0.15625-3.875,0,0-0.03-0.02902-0.0312-0.03125,0.0966-0.5661,0.0483-1.3128-0.1875-2.5625-0.56591-2.9993-1.0226-5.4163-4.5312-7.9062-0.16386-0.11629-0.33607-0.20305-0.5-0.3125-0.13838-0.10666-0.28249-0.21544-0.4375-0.3125-1.9103-1.2027-3.851-1.9326-5.9062-2.3438-0.44187-0.09069-0.88915-0.19002-1.3438-0.25-0.0308-0.0039-0.0629,0.0038-0.0937,0-0.44608-0.05677-0.91451-0.09547-1.375-0.125-0.0402-0.0024-0.0847,0.0022-0.125,0-0.47279-0.02781-0.94724-0.06087-1.4375-0.0625-0.11794,0-0.13693,0.000174-0.25,0-4.0855-0.01209-6.5913-0.4375-8.5625-0.4375-1.9987,0-4.725-1.0376-7.0312-2.9375-0.78392-0.64579-1.4313-1.1568-2.0312-1.5938-0.39576-0.47665-0.79008-0.96292-1.25-1.4375-0.8468-0.87378-2.3964-2.0195-3.9375-3.0312-0.8985-0.7188-2.953-1.8734-4.0312-2.125-1.0782-0.25158-2.4788-0.62969-3.7188-0.59375zm19.125,36.25c2.3096,0.45524,4.5331,0.63618,6.5625,0.625,0.23334,0.48736,0.43397,0.89567,0.5,1.0938,0.22637,0.67909-0.78546,1.141-1.125,1.5938-0.33954,0.45273-1.4696,1.6993-2.375,1.8125-0.39016,0.04877-0.93832,0.14261-1.4688,0.28125-0.38334-1.3722-1.1108-2.1999-1.7188-4.125-0.12453-0.39433-0.25396-0.83846-0.375-1.2812z" fill="#000002"/>
 <path id="path45388" d="m14.547,20.829c-2.923,4.3479-2.7038,4.421-2.8864,7.8555-0.18268,3.4345,0.21923,5.5171,0.43845,6.9421,0.23202,1.5081,0.65767,3.8364,1.2423,4.5306,0.58459,0.69421,1.3884,1.1692,1.3884,1.1692s0.84036-0.43845,2.448-2.923c1.783-2.7555,1.9365-1.7538,2.2653-6.394,0.32884-4.6402-0.54805-9.7189-1.8634-10.523-1.3153-0.80382-3.0326-0.65767-3.0326-0.65767z" fill="#cf9447"/>
 <path id="path45358" d="m45.116,50.291c1.4714,0.79227,2.8295,3.8482,3.0559,4.5273,0.22637,0.67909-0.79227,1.1318-1.1318,1.5845-0.33954,0.45273-1.4714,1.6977-2.3768,1.8109-0.90545,0.11318-2.6032,0.56591-3.1691,0.90545s-1.1318,0.56591-1.1318,1.245,0.67909,1.0186,1.9241,1.1318c1.245,0.11318,4.7536,0.22636,5.0932,0.22636,0.33955,0,1.4126,0.14045,2.9972-1.4441,1.5845-1.5845,2.3224-1.9514,2.6619-2.8568,0.33954-0.90545,1.1318-2.49,1.6977-3.2823,0.5659-0.79227,0.45272-0.33954,1.3582-1.6977,0.90545-1.3582-10.979-2.1504-10.979-2.1504z" fill="#d2d2d2"/>
 <path id="path5910" d="m45.116,50.291c1.4714,0.79227,2.8295,3.8482,3.0559,4.5273,0.22637,0.67909-0.79227,1.1318-1.1318,1.5845-0.33954,0.45273-1.4714,1.6977-2.3768,1.8109-0.90545,0.11318-2.6032,0.56591-3.1691,0.90545s-1.1318,0.56591-1.1318,1.245,0.67909,1.0186,1.9241,1.1318c1.245,0.11318,4.7536,0.22636,5.0932,0.22636,0.33955,0,1.6475,0.0502,3.2321-1.5343s2.0875-1.8611,2.427-2.7666c0.33954-0.90545,1.1318-2.49,1.6977-3.2823,0.5659-0.79227,0.45272-0.33954,1.3582-1.6977,0.90545-1.3582-10.979-2.1504-10.979-2.1504z" fill="url(#linearGradient7542)"/>
 <path id="path45360" d="m40.023,45.425c0.11318,3.9613,0.79226,6.7909,1.4714,8.9413,0.67909,2.1504,1.4714,2.9427,1.8109,4.6404,0.33954,1.6977,0.67908,1.1318,0.45272,2.0373-0.22636,0.90545-0.45272,1.9241-0.90545,2.1504-0.45273,0.22636-0.79227,0.90545-1.6977,0.90545-0.90545,0-3.8482-0.11318-4.98-0.22636s-1.3582-0.79227-1.3582-1.4714c0-0.67909,0.67909-1.3582,0.67909-1.3582s0.45273-0.22636,1.0186-0.56591c0.56591-0.33954,0.45273-0.56591,0.56591-1.245s0-2.0373-0.56591-2.9427c-0.5659-0.90545-0.5659-1.245-1.245-2.2636-0.67909-1.0186-0.90545-1.8109-1.1318-3.3954-0.22636-1.5845,0-3.6218-0.22636-6.1118s0.56591-5.4327,3.0559-5.4327,3.0559,6.3382,3.0559,6.3382z" fill="#898789"/>
 <path id="path5948" fill-opacity="0.84474888" d="m40.023,45.425c0.11318,3.9613,0.79226,6.7909,1.4714,8.9413,0.67909,2.1504,1.4714,2.9427,1.8109,4.6404,0.33954,1.6977,0.67908,1.1318,0.45272,2.0373-0.22636,0.90545-0.45272,1.9241-0.90545,2.1504-0.45273,0.22636-0.79227,0.90545-1.6977,0.90545-0.90545,0-3.8482-0.11318-4.98-0.22636s-1.3582-0.79227-1.3582-1.4714c0-0.67909,0.67909-1.3582,0.67909-1.3582s0.45273-0.22636,1.0186-0.56591c0.56591-0.33954,0.45273-0.56591,0.56591-1.245s0-2.0373-0.56591-2.9427c-0.5659-0.90545-0.5659-1.245-1.245-2.2636-0.67909-1.0186-0.90545-1.8109-1.1318-3.3954-0.22636-1.5845,0-3.6218-0.22636-6.1118s0.56591-5.4327,3.0559-5.4327,3.0559,6.3382,3.0559,6.3382z" fill="#3b1e14"/>
 <path id="path45350" d="m68.432,40.331c-0.5659-2.9993-1.0186-5.4327-4.5272-7.9227s-7.0172-3.3954-11.205-3.3954c-4.1877,0-6.7163-0.45273-8.715-0.45273s-4.711-1.0428-7.0172-2.9427c-8.1511-6.7148-5.6386-1.4149-7.4495,0.84871-1.6806,2.1008-3.8687,9.8404-3.6423,12.507,0.20107,2.3683,1.7616,3.6925,4.5273,6.5645,2.9427,3.0559,4.3009,6.1118,9.7336,7.3568,5.5205,1.2651,10.526,0.90545,14.034,0.11318,3.5086-0.79227,10.186-3.5086,12.337-6.5645,1.283-1.8232,2.49-3.1125,1.9241-6.1118z" fill="url(#radialGradient7537)"/>
 <path id="path45452" d="m440.9,55.33c-6.6032,0.1914-21.819,3.828-29.284,9.7613-7.4645,5.9333-16.652,16.269-19.331,26.221-2.6796,9.9527-4.0194,17.8-2.6796,26.987,1.3398,9.1871,5.9333,21.245,6.8903,23.733,0.95699,2.4882,2.2968,4.0194,2.4882,5.5505,0.57172,4.5739-3.0624,12.058-5.3591,18.757-2.2968,6.6989-0.95698,16.46,0.5742,19.714,1.5312,3.2538,3.0624,8.2301,7.4645,8.6129,4.4022,0.38279,9.3785-1.5312,10.144-1.914,0.76559-0.3828,2.2968-1.3398,2.2968-1.3398s2.1054,2.6796,4.9764,3.2538,8.9957,2.6796,14.355,2.6796c5.3591,0,13.972-1.7226,18.374-4.7849,4.4022-3.0624,7.4645-5.3591,8.8043-9.7613,1.3398-4.4021,1.3398-9.3785,2.2968-12.441,0.95699-3.0624-0.95698-3.828,1.3398-6.3161,3.9484-4.2774,8.0387-7.8473,10.527-11.101,2.4882-3.2538,11.867-7.0817,16.652-13.781,4.7849-6.6989,10.144-14.738,9.9527-24.116-0.1914-9.3785-0.95699-17.8-4.0194-25.456-3.0624-7.6559-11.1-16.536-15.312-19.905-4.785-3.828-15.695-9.9527-21.437-11.292-5.7419-1.3398-13.111-3.2538-19.714-3.0624z" fill-opacity="0.543379" transform="matrix(0.20236882,0,0,0.18164321,-66.732448,7.9317479)" filter="url(#filter45474-9)" fill="#000"/>
 <g id="g45684" transform="matrix(0.18777762,0,0,0.18777762,-61.047637,5.5711602)">
  <path id="path45356" d="m691.3,198.9c-1.205,27.12-1.808,25.32,3.616,38.58,5.425,13.26,7.233,7.836,7.233,15.67,0,7.836-5.425,12.05-6.027,27.12-0.6027,15.07,4.822,19.89-0.6027,20.49-5.425,0.6028-32.55,2.411-36.16,0.6028-3.616-1.808-5.425-3.616-4.822-8.438,0.6028-4.822,5.425-3.616,7.836-7.836,2.411-4.219,4.822-7.233,5.425-13.86,0.6027-6.63-1.205-13.26-2.411-19.29-1.205-6.027-1.808-12.05-6.63-17.48-4.822-5.425-4.822-5.425-7.233-9.644s4.822-7.233,6.63-12.05c1.808-4.822,4.822-11.45,6.63-18.08s6.63-11.45,12.05-11.45c5.425,0,14.47,15.67,14.47,15.67z" fill="#FFF"/>
  <path id="path45674" opacity="0.67078193" d="m691.3,198.9c-1.205,27.12-1.808,25.32,3.616,38.58,5.425,13.26,7.233,7.836,7.233,15.67,0,7.836-5.425,12.05-6.027,27.12-0.6027,15.07,4.822,19.89-0.6027,20.49-5.425,0.6028-32.55,2.411-36.16,0.6028-3.616-1.808-5.425-3.616-4.822-8.438,0.6028-4.822,5.425-3.616,7.836-7.836,2.411-4.219,4.822-7.233,5.425-13.86,0.6027-6.63-1.205-13.26-2.411-19.29-1.205-6.027-1.808-12.05-6.63-17.48-4.822-5.425-4.822-5.425-7.233-9.644s4.822-7.233,6.63-12.05c1.808-4.822,4.822-11.45,6.63-18.08s6.63-11.45,12.05-11.45c5.425,0,14.47,15.67,14.47,15.67z" fill="url(#linearGradient7486)"/>
 </g>
 <path id="path45352" filter="url(#filter45662-3)" transform="matrix(0.18777762,0,0,0.18777762,-61.047637,6.7211423)" d="m690.14,178.99c-3.0137-15.973-5.4247-28.932-24.11-42.192s-37.37-18.082-59.671-18.082-27.932-0.60275-38.575-0.60275c-10.644,0-11.635,43.681-5.4247,57.863,6.2099,14.182,3.5317,24.443,27.123,29.534,23.592,5.091,3.0928,10.073,20.493,18.082,18.986,8.7398,34.808,0.15068,50.329-10.548,11.296-7.7866,18.082-0.00001,23.808-8.137,6.8326-9.7095,9.0411-9.9452,6.0274-25.918z" fill="url(#radialGradient6427)"/>
 <path id="path45354" d="m645.54,127.76c21.096,4.2192,27.726,15.671,29.534,33.151,1.8082,17.48,5.4247,36.164,3.0137,43.397-2.411,7.2329-14.466,9.0411-18.685,9.0411-4.2192,0-7.2329-2.411,0.60274-15.671s9.0411-19.89,6.6302-32.548c-2.411-12.658-4.8219-25.315-11.452-29.534-6.6302-4.2192-9.6439-7.8356-9.6439-7.8356z" fill-opacity="0.21917808" transform="matrix(0.19082704,0,0,0.18011615,-63.124368,7.6835432)" filter="url(#filter45658-1)" fill="#0a091a"/>
 <path id="path45566" d="m542.31,189.3c0,6.6302,17.192,18.486,15.384,28.733-1.8082,10.247-7.8356,22.301-17.48,28.932-9.6439,6.6302-19.89,28.329-26.521,37.37-6.6302,9.0411-11.776,15.73-15.782,20.569-4.4875,5.4213-11.24,5.9343-26.308,5.3315-15.069-0.60275-26.1-0.50049-30.146-0.59402-3.2174-0.0744-2.9875-5.8993-0.26207-10.943,1.9223-3.5571,5.8498-6.9446,11.877-8.1501,6.0274-1.2055,8.8716-1.4174,14.838-5.7217,7.8772-8.5562,15.213-22.315,21.07-30.146,3.6164-4.8219,9.9361-12.98,13.584-21.597,1.7995-4.2512,5.5761-11.758,2.0878-17.462-4.7169-7.7132,8.8966-11.759,4.6774-17.184,3.6116-3.4072,22.056-9.347,32.98-9.138z" fill-opacity="0.48858451" transform="matrix(0.18777762,0,0,0.18777762,-61.047637,6.7211423)" filter="url(#filter45588-9)" fill="#000100"/>
 <path id="path45362" d="m43.795,38.949c-0.56591,1.3582-2.1504,3.2823-2.1504,4.5273s1.9241,2.2636,1.5845,4.1877c-0.33954,1.9241-1.4714,4.1877-3.2823,5.4327s-3.735,5.3195-4.98,7.0172-2.2113,2.9537-2.9635,3.8624c-0.84265,1.018-2.1105,1.1143-4.9401,1.0011-2.8295-0.11318-4.901-0.09398-5.6607-0.11154-0.60415-0.01396-0.56098-1.1078-0.0492-2.0548,0.36097-0.66795,1.0985-1.304,2.2303-1.5304,1.1318-0.22636,1.6659-0.26615,2.7863-1.0744,1.4792-1.6067,2.8567-4.1902,3.9564-5.6607,0.67908-0.90545,1.8658-2.4373,2.5507-4.0554,0.3379-0.79828,1.0471-2.2079,0.39203-3.279-0.88572-1.4484-0.88959-2.0148-1.6819-3.0335-0.79227-1.0186-1.5162-1.9544-1.4031-3.0862,0.11318-1.1318,1.274-4.293,6.4804-4.0667,5.2064,0.22636,7.6963,0.56591,7.1304,1.9241z" fill="url(#linearGradient7527)"/>
 <path id="path45384" d="m21.995,16.855c-1.2399,0.03594-4.0972,0.7188-5.4989,1.833-1.4017,1.1141-3.1268,3.0549-3.63,4.9238-0.50316,1.8689-0.75474,3.3424-0.50316,5.0676,0.25158,1.7251,1.1141,3.9894,1.2938,4.4566,0.1797,0.46722,0.43128,0.75474,0.46722,1.0423,0.10735,0.85887-0.57504,2.2642-1.0063,3.5221-0.43128,1.2579-0.1797,3.0909,0.10782,3.7018,0.28752,0.61098,0.57505,1.5454,1.4017,1.6173,0.82663,0.07188,1.7611-0.28752,1.9048-0.3594,0.14376-0.07188,0.43128-0.25158,0.43128-0.25158s0.39535,0.50316,0.93445,0.61098,1.6892,0.50316,2.6955,0.50316,2.6236-0.32346,3.4503-0.8985c0.82662-0.57504,1.4017-1.0063,1.6532-1.833,0.25158-0.82662,0.25158-1.7611,0.43128-2.3361,0.1797-0.57504-0.1797-0.7188,0.25158-1.186,0.74141-0.8032,1.5095-1.4735,1.9767-2.0845,0.46723-0.61098,2.2283-1.3298,3.1268-2.5877,0.89851-1.2579,1.9048-2.7674,1.8689-4.5285s-0.1797-3.3424-0.75474-4.78c-0.57505-1.4376-2.0844-3.1051-2.8752-3.7378-0.8985-0.7188-2.9471-1.8689-4.0253-2.1205-1.0782-0.25158-2.4619-0.61098-3.7018-0.57504z" fill="url(#radialGradient7524)"/>
 <path id="path45406" d="m404.44,170.71c6.5084-10.378,8.7951-17.766,9.6746-27.792,0.87951-10.026,0.3518-20.58-0.7036-28.496-1.0554-7.9156-5.8048-17.414-10.378-18.821-4.5734-1.4072-6.6842,0.3518-7.3878-2.8144-0.70361-3.1662,0.70943-8.8178,5.8047-16.359,4.3975-6.5083,8.0915-9.8505,15.831-14.424,7.7958-4.6066,16.056-6.6907,21.988-6.8602,6.1565-0.1759,24.098,1.2313,31.31,7.5638,7.212,6.3324,9.4987,7.212,11.082,12.313,1.5831,5.1011,2.6385,16.359,2.6385,16.359s-0.70361-12.841-9.4987-18.646c-8.7951-5.8047-11.434-5.6288-18.997-8.6192-6.8782-2.7193-10.026-2.2867-12.489,0.7036-3.58,4.3472,1.759,5.4529,8.0915,10.554,6.3324,5.1011,11.258,5.6288,17.062,10.554,7.5075,6.37,11.434,11.434,12.665,18.47,1.7623,8.6679,2.4568,19.241-3.518,18.47-7.7397-1.2313-14.072-7.3878-18.294-11.961-4.2216-4.5734-2.8144-6.6842-11.258-13.017-6.5703-4.9278-13.896-2.6385-17.238-0.17591-5.6111,4.1345-5.8047,5.4529-8.0915,14.248-2.2867,8.7951-2.8144,15.128-3.8698,23.571-0.96098,7.6878-0.35181,11.961-0.70361,21.284-0.38185,10.119,6.8602,14.424,4.5734,16.535-2.2867,2.1108-7.036,6.1566-12.841,2.9903-5.8047-3.1662-5.4529-5.6288-5.4529-5.6288z" fill-opacity="0.58904114" transform="matrix(0.18777762,0,0,0.18777762,-61.047637,6.7211423)" filter="url(#filter45416-5)" fill="#000"/>
 <path id="path45386" filter="url(#filter45514-9)" transform="matrix(0.18777762,0,0,0.18777762,-61.047637,6.7211423)" d="m468.02,59.417c11.179,5.0304,28.808,17.39,36.331,25.152,7.6718,7.9163,13.587,15.848,18.251,24.039,4.7024,8.2567,8.0184,18.999,8.0184,30.737s-3.3536,18.445-9.5018,25.711c-6.1482,7.2661-12.855,11.738-19.563,16.768-6.7072,5.0304-11.738,6.7072-11.738,6.7072s-9.353-8.9124-13.133-19.668c-3.5889-10.212-3.4526-22.41,1.3741-32.775s5.7549-22.148,5.2447-25.708c-1.2542-8.1567-2.2777-13.049-8.5563-19.344-5.747-5.7621-25.173-13.175-24.614-22.676,0.55893-9.5018,6.7072-13.973,17.886-8.9429z" fill="url(#linearGradient6433)"/>
 <path id="path45390" d="m16.225,37.57c0.50329,0.08388,1.6441-0.0671,2.2145,0.50329,0.52518,0.52518,0.23487,1.3085-0.10066,1.8118-0.25314,0.37972-1.0401,0.7046-1.6776,0.6375-0.63749-0.0671-1.2079-0.26842-1.577-0.77171-0.27778-0.3788-0.80193-1.2338-0.40263-1.7783,0.36908-0.50329,1.0401-0.48651,1.5434-0.40263z" fill="#0b0d1a"/>
 <g id="g6295" transform="matrix(0.26199121,0,0,0.26199121,9.9273594,15.457105)">
  <path id="path45392" filter="url(#filter45444-2)" transform="matrix(0.71673252,0,0,0.71673252,-270.90602,-33.344487)" d="m430.3,130.4c3.574-3.931,2.289-5.649,5.539-9.649,2.323-2.859,4.288-3.395,9.113-3.038,5.346,0.396,6.433,1.251,9.649,1.966,8.766,1.672,6.162,2.333,1.608,9.113-2.911,5.657-9.57,6.688-13.58,5.897-3.823-0.7823-5.718-2.68-7.862-3.216s-4.467-1.072-4.467-1.072z" fill="#2b1b26"/>
  <rect id="rect45396" style="color:#000000;enable-background:accumulate;" fill-rule="nonzero" rx="5.763" ry="4.4824" height="8.9647" width="14.215" y="52.701" x="40.695" fill="#c9d4cb"/>
  <rect id="rect45398" style="color:#000000;enable-background:accumulate;" fill-rule="nonzero" rx="4.7766" ry="3.842" height="7.684" width="11.782" y="52.573" x="43.384" fill="#1d212f"/>
 </g>
 <g id="g6290" transform="matrix(0.26199121,0,0,0.26199121,9.9273594,15.457105)">
  <path id="path45528" filter="url(#filter45444-2)" transform="matrix(0.48405581,0.37783907,-0.20729886,0.59676299,-152.29715,-168.73006)" d="m388.1,123.9c1.239-2.741,0.549-2.24,3.799-6.24,2.323-2.859,7.114-6.321,11.94-5.964,5.346,0.396,0.9722-0.5314,6.031,1.394,5.058,1.925,6.583,3.344,2.029,10.12-2.911,5.657-10.51,9.43-14.52,8.638-3.823-0.7823-3.81-0.7158-5.954-1.252-2.144-0.536-3.322-6.7-3.322-6.7z" fill="#2b1b26"/>
  <rect id="rect45530" style="color:#000000;enable-background:accumulate;" transform="matrix(0.9479671,0.31836831,-0.29251932,0.95625961,0,0)" fill-rule="nonzero" rx="4.3521" ry="4.4637" height="8.9274" width="10.735" y="42.952" x="27.164" fill="#c9d4cb"/>
  <rect id="rect45532" style="color:#000000;enable-background:accumulate;" transform="matrix(0.95227979,0.30522649,-0.30522649,0.95227979,0,0)" fill-rule="nonzero" rx="3.7624" ry="3.842" height="7.684" width="9.2807" y="43.344" x="29.388" fill="#1d212f"/>
 </g>
 <path id="path45534" opacity="0.67078193" d="m502.69,188.24c3.5503,9.3988,9.8479,23.953,10.159,30.576,0.77174,16.406-1.4628,20.463-6.1336,29.76-6.1814,12.305-8.4794,15.833-15.517,25.713-6.79,9.532-9.7257,14.143-16.356,23.185-6.6302,9.0411,24.539,3.7004,20.534,8.5395-4.4875,5.4213-11.24,5.9343-26.308,5.3315-15.069-0.60275-26.1-0.50049-30.146-0.59402-3.2174-0.0744-2.9875-5.8993-0.26207-10.943,1.9223-3.5571,5.8498-6.9446,11.877-8.1501,6.0274-1.2055,8.8716-1.4174,14.838-5.7217,7.8772-8.5562,15.213-22.315,21.07-30.146,3.6164-4.8219,9.9361-12.98,13.584-21.597,1.7995-4.2512,5.5761-11.758,2.0878-17.462-4.7169-7.7132-4.7375-10.73-8.9567-16.155-4.2192-5.4247-7.0863-10.34-9.7283-15.791-4.5422-9.3716-13.322-24.361,14.253-21.234,3.7523,0.42544,1.4538,15.289,5.0041,24.688z" transform="matrix(0.18777762,0,0,0.18777762,-61.047637,6.7211423)" filter="url(#filter6012-3)" fill="url(#linearGradient6435)"/>
 <path id="path5952" d="m39.366,61.296c-0.83758,0.33503-1.9384,0.19145-2.0341,1.2444s0.23931,1.4598,0.23931,1.4598l1.388-0.02395-0.74186-0.74186c-0.11966-0.90938-0.35896-1.2923,0.16752-1.5076,0.52648-0.21538,0.98116-0.43076,0.98116-0.43076z" fill="#151314"/>
 <path id="path5954" d="m36.686,61.368c-0.76579,0.43076-0.74186,0.33503-0.88544,0.86151-0.14359,0.52648-0.11966,0.76579-0.0479,1.1248,0.0718,0.35896,0.11966,0.45469,0.11966,0.45469l0.55041,0.02392s-0.35896-0.57434-0.3829-1.0051c-0.0239-0.43076-0.0718-0.57434,0.0957-0.83758,0.16751-0.26324,0.55041-0.62221,0.55041-0.62221z" fill="#1e141a"/>
 <path id="path5956" d="m40.519,60.981c-0.63164,0.93065-0.28444,1.4844,0.14267,2.0057,0.42711,0.52126,0.87403,1.056,0.87403,1.056s0.38544-0.05654,0.65279-0.28,0.48167-0.45399,0.48167-0.45399-0.30696,0.19658-0.94695-0.26671c-0.64-0.46329-1.1668-0.96547-1.2092-1.457s0.005-0.60397,0.005-0.60397z" fill="#151314"/>
 <path id="path5958" d="m24.458,62.158c-1.9623,0.47862-2.0102,1.1487-2.2256,1.4119-0.21538,0.26324-0.98117,1.2923-0.98117,1.2923l0.71792,0.02392s0.28718-0.67007,0.71793-1.2923c0.43076-0.62221,1.7709-1.4359,1.7709-1.4359z" fill="#2b292b"/>
 <path id="path5960" d="m26.779,62.541c-1.1248,0.3829-1.3641,0.64614-1.8666,1.1248-0.50255,0.47862-0.67007,1.2205-0.67007,1.2205h0.67007s-0.0957-0.47862,0.3111-1.029c0.40682-0.55041,1.5555-1.3162,1.5555-1.3162z" fill="#2b292b"/>
 <path id="path5962" d="m30.42,54.324c-1.533,2.3711-4.2312,6.2549-4.2312,6.2549s0.67308,0.03186,2.3302-0.3475c1.6966-0.38838,2.78-0.89939,3.0661-1.5739,0.38921-0.91743,0.51744-3.4556,0.1022-3.9451-0.55705-0.65658-1.2673-0.38838-1.2673-0.38838z" fill="url(#linearGradient7504)"/>
 <path id="path6024" filter="url(#filter45514-9)" transform="matrix(0.18777762,0,0,0.18777762,-61.047637,6.7211423)" d="m522.6,108.61c4.7024,8.2567,8.0184,18.999,8.0184,30.737s-3.3536,18.445-9.5018,25.711c-6.1482,7.2661-12.855,11.738-19.563,16.768-6.7072,5.0304-11.738,6.7072-11.738,6.7072s-9.353-8.9124-13.133-19.668c-3.5889-10.212-3.4526-22.41,1.3741-32.775s5.7549-22.148,5.2447-25.708c3.364-21.026,2.6701-28.572,39.298-1.7728z" fill="url(#linearGradient6439)"/>
 <g id="g5687" transform="translate(-35.750619,-28.550806)">
  <path id="path5689" opacity="0.2" d="m114.5,68.54c0,28.46-9.954,38.42-38.42,38.42-28.46,0-38.42-9.956-38.42-38.42,0-28.46,9.956-38.42,38.42-38.42,28.47,0,38.42,9.956,38.42,38.42z" fill="url(#linearGradient6441)"/>
  <g id="g5691" transform="translate(-34.207059,5.6313165)">
   <path id="path5693" opacity="0.5" d="m110.3,100.4c-28.3,0-38.3-9.848-38.42-37.93-0.000972,0.1644-0.0058,0.321-0.0058,0.4863,0,28.46,9.956,38.42,38.42,38.42,28.47,0,38.42-9.956,38.42-38.42,0-0.1654-0.005-0.322-0.006-0.4863-0.1148,28.09-10.11,37.93-38.42,37.93z"/>
   <path id="path5695" opacity="0.25" d="m110.3,24.48c-28.46,0-38.42,9.956-38.42,38.42,0,28.46,9.956,38.42,38.42,38.42,28.47,0,38.42-9.956,38.42-38.42,0-28.46-9.954-38.42-38.42-38.42zm0,75.87c-28,0-37.45-9.45-37.45-37.45s9.45-37.45,37.45-37.45,37.45,9.45,37.45,37.45-9.45,37.45-37.45,37.45z" fill="url(#linearGradient6443)"/>
  </g>
 </g>
 <g id="g6333" transform="translate(98.444537,-2.2373678)">
  <path id="path6335" d="m78.27,39.95c0,28.46-9.954,38.42-38.42,38.42-28.46,0-38.42-9.956-38.42-38.42,0-28.46,9.956-38.42,38.42-38.42,28.47,0,38.42,9.956,38.42,38.42z" fill="url(#linearGradient6419)"/>
  <path id="path6337" filter="url(#filter8300)" d="m22.35,17.19c-1.24,0.03594-4.098,0.7296-5.5,1.844-1.321,1.05-2.898,2.827-3.5,4.594-1.244,2.096-1.173,2.787-1.313,5.406-0.1827,3.434,0.2183,5.513,0.4375,6.938,0.1466,0.953,0.3637,2.199,0.6563,3.188-0.1927,1.124,0.0246,2.417,0.2813,2.906,0.3099,0.591,0.6091,1.493,1.5,1.563,0.8909,0.06953,1.908-0.2742,2.063-0.3438,0.1549-0.06953,0.4688-0.25,0.4688-0.25s0.419,0.4895,1,0.5938,1.822,0.5,2.906,0.5c1.085,0,2.828-0.3187,3.719-0.875,0.8909-0.5563,1.51-0.9816,1.781-1.781,0.0109-0.03211,0.0212-0.06133,0.0312-0.09375,0.7204,1.328,2.005,2.558,3.875,4.5,1.137,1.181,2.04,2.361,3.031,3.438-0.1399,0.5715-0.366,1.141-0.5313,1.531-0.6356,1.502-1.682,2.86-2.375,3.781-0.0459,0.01127-0.0937,0.03125-0.0937,0.03125-1.232,1.906-2.894,4.317-3.625,5.375-0.1439,0.1757-0.2914,0.3413-0.4375,0.5-1.12,0.8082-1.649,0.8674-2.781,1.094-1.132,0.2264-1.858,0.8633-2.219,1.531-0.2559,0.4735-0.407,0.9814-0.4063,1.375-0.05,0.4948,0.0561,0.8669,0.4063,0.875,0.7597,0.01756,2.858,0.01182,5.688,0.125,2.142,0.08568,3.374,0.05708,4.219-0.4063,0.4955-0.1601,0.8715-0.4308,1.188-0.8125,0.7522-0.9087,1.724-2.146,2.969-3.844,0.4448-0.6066,0.9804-1.555,1.563-2.531,0.1291,0.6269,0.1591,1.233,0.0937,1.625-0.1132,0.6791,0.003,0.9105-0.5625,1.25-0.5659,0.3395-1.031,0.5625-1.031,0.5625s-0.6563,0.6959-0.6563,1.375,0.2119,1.356,1.344,1.469c0.3038,0.03038,0.8847,0.06556,1.375,0.09375,0.002,0.0025,0.0312,0.03125,0.0312,0.03125h0.4375c1.24,0.06306,2.545,0.09375,3.125,0.09375,0.2566,0,0.4751-0.04168,0.6563-0.125,0.1251-0.04279,0.2814-0.1144,0.4063-0.2188,0.1842-0.1539,0.2314-0.2295,0.3125-0.3125,0.1096-0.0955,0.2306-0.1934,0.3438-0.25,0.3629-0.1814,0.5614-0.8918,0.75-1.625,1.54,0.08281,3.519,0.1563,3.781,0.1563,0.2155,0,0.7188,0.0515,1.469-0.3125,0.507-0.2168,1.104-0.573,1.75-1.219,1.163-1.163,1.733-1.637,2.094-2.156,0.009-0.01195,0.0224-0.01924,0.0312-0.03125,0.0125-0.01853,0.0193-0.04373,0.0312-0.0625,0.1094-0.1578,0.2105-0.3426,0.2813-0.5313,0.3395-0.9054,1.122-2.489,1.688-3.281,0.5659-0.7923,0.4696-0.3293,1.375-1.688,2.036-0.6467,4.479-1.627,6.563-2.844,0.9054,1.019,0.9924,2.149,1.219,3.281,0.2264,1.132,0.5819,2.38,0.4688,3.625-0.0566,0.6225-0.1911,1.073-0.375,1.469-0.092,0.1981-0.2046,0.3786-0.3125,0.5625s-0.2306,0.3644-0.3438,0.5625c-0.4527,0.7923-1.356,0.5633-1.469,1.469-0.1132,0.9055,0.2272,1.254,0.9063,1.594,0.3395,0.1698,1.796,0.1816,3.281,0.125,1.486-0.05659,3.022-0.1934,3.531-0.25,1.019-0.1132-0.0194-1.014,0.0937-3.844,0.1132-2.83,1.125-3.622,1.125-5.094,0-1.471-0.3251-0.4475-1.344-2.938-0.5093-1.245-0.7418-1.793-0.8125-2.656-0.0177-0.2158-0.031-0.4462-0.0312-0.7188-0.00066-0.8177,0.0714-1.965,0.1563-3.875,0,0-0.03-0.02902-0.0312-0.03125,0.0966-0.5661,0.0483-1.313-0.1875-2.563-0.5659-2.999-1.023-5.416-4.531-7.906-0.1639-0.1163-0.3361-0.2031-0.5-0.3125-0.1384-0.1067-0.2825-0.2154-0.4375-0.3125-1.91-1.203-3.851-1.933-5.906-2.344-0.4419-0.09069-0.8892-0.19-1.344-0.25-0.0308-0.0039-0.0629,0.0038-0.0937,0-0.4461-0.05677-0.9145-0.09547-1.375-0.125-0.0402-0.0024-0.0847,0.0022-0.125,0-0.4728-0.02781-0.9472-0.06087-1.438-0.0625-0.1179,0-0.1369,0.000174-0.25,0-4.085-0.01209-6.591-0.4375-8.563-0.4375-1.999,0-4.725-1.038-7.031-2.938-0.7839-0.6458-1.431-1.157-2.031-1.594-0.3958-0.4767-0.7901-0.9629-1.25-1.438-0.8468-0.8738-2.396-2.019-3.938-3.031-0.8985-0.7188-2.953-1.873-4.031-2.125-1.078-0.2516-2.479-0.6297-3.719-0.5938zm19.13,36.25c2.31,0.4552,4.533,0.6362,6.563,0.625,0.2333,0.4874,0.434,0.8957,0.5,1.094,0.2264,0.6791-0.7855,1.141-1.125,1.594-0.3395,0.4527-1.47,1.699-2.375,1.813-0.3902,0.04877-0.9383,0.1426-1.469,0.2813-0.3833-1.372-1.111-2.2-1.719-4.125-0.1245-0.3943-0.254-0.8385-0.375-1.281z" fill="#000002"/>
  <g id="g6339" transform="translate(-96.585535,2.5551858)">
   <path id="path6341" d="m110.9,18.15c-2.923,4.348-2.704,4.421-2.886,7.856-0.1827,3.434,0.2192,5.517,0.4385,6.942,0.232,1.508,0.6577,3.836,1.242,4.531,0.5846,0.6942,1.388,1.169,1.388,1.169s0.8404-0.4384,2.448-2.923c1.783-2.756,1.936-1.754,2.265-6.394,0.3288-4.64-0.5481-9.719-1.863-10.52-1.315-0.8038-3.033-0.6577-3.033-0.6577z" fill="#513834"/>
   <path id="path6343" d="m141.4,47.61c1.471,0.7923,2.83,3.848,3.056,4.527,0.2264,0.6791-0.7923,1.132-1.132,1.585-0.3395,0.4527-1.471,1.698-2.377,1.811-0.9054,0.1132-2.603,0.5659-3.169,0.9055-0.5659,0.3395-1.132,0.5659-1.132,1.245s0.6791,1.019,1.924,1.132c1.245,0.1132,4.754,0.2264,5.093,0.2264,0.3396,0,1.413,0.1405,2.997-1.444,1.585-1.585,2.322-1.951,2.662-2.857,0.3395-0.9054,1.132-2.49,1.698-3.282,0.5659-0.7923,0.4527-0.3395,1.358-1.698,0.9054-1.358-10.98-2.15-10.98-2.15z" fill="#d2d2d2"/>
   <path id="path6345" d="m141.4,47.61c1.471,0.7923,2.83,3.848,3.056,4.527,0.2264,0.6791-0.7923,1.132-1.132,1.585-0.3395,0.4527-1.471,1.698-2.377,1.811-0.9054,0.1132-2.603,0.5659-3.169,0.9055-0.5659,0.3395-1.132,0.5659-1.132,1.245s0.6791,1.019,1.924,1.132c1.245,0.1132,4.754,0.2264,5.093,0.2264,0.3396,0,1.648,0.0502,3.232-1.534,1.585-1.585,2.087-1.861,2.427-2.767,0.3395-0.9054,1.132-2.49,1.698-3.282,0.5659-0.7923,0.4527-0.3395,1.358-1.698,0.9054-1.358-10.98-2.15-10.98-2.15z" fill="url(#linearGradient6421)"/>
   <path id="path6347" d="m136.3,42.75c0.1132,3.961,0.7923,6.791,1.471,8.941,0.6791,2.15,1.471,2.943,1.811,4.64,0.3395,1.698,0.6791,1.132,0.4527,2.037-0.2264,0.9055-0.4527,1.924-0.9054,2.15-0.4527,0.2264-0.7923,0.9054-1.698,0.9054-0.9054,0-3.848-0.1132-4.98-0.2264s-1.358-0.7923-1.358-1.471c0-0.6791,0.6791-1.358,0.6791-1.358s0.4527-0.2264,1.019-0.5659c0.5659-0.3395,0.4527-0.5659,0.5659-1.245s0-2.037-0.5659-2.943c-0.5659-0.9054-0.5659-1.245-1.245-2.264s-0.9054-1.811-1.132-3.395c-0.2264-1.585,0-3.622-0.2264-6.112s0.5659-5.433,3.056-5.433c2.49,0,3.056,6.338,3.056,6.338z" fill="#898789"/>
   <path id="path6349" fill-opacity="0.84474888" d="m136.3,42.75c0.1132,3.961,0.7923,6.791,1.471,8.941,0.6791,2.15,1.471,2.943,1.811,4.64,0.3395,1.698,0.6791,1.132,0.4527,2.037-0.2264,0.9055-0.4527,1.924-0.9054,2.15-0.4527,0.2264-0.7923,0.9054-1.698,0.9054-0.9054,0-3.848-0.1132-4.98-0.2264s-1.358-0.7923-1.358-1.471c0-0.6791,0.6791-1.358,0.6791-1.358s0.4527-0.2264,1.019-0.5659c0.5659-0.3395,0.4527-0.5659,0.5659-1.245s0-2.037-0.5659-2.943c-0.5659-0.9054-0.5659-1.245-1.245-2.264s-0.9054-1.811-1.132-3.395c-0.2264-1.585,0-3.622-0.2264-6.112s0.5659-5.433,3.056-5.433c2.49,0,3.056,6.338,3.056,6.338z" fill="#3b1e14"/>
   <path id="path6351" d="m164.7,37.65c-0.5659-2.999-1.019-5.433-4.527-7.923-3.509-2.49-7.017-3.395-11.2-3.395-4.188,0-6.716-0.4527-8.715-0.4527s-4.711-1.043-7.017-2.943c-8.151-6.715-5.639-1.415-7.449,0.8487-1.681,2.101-3.869,9.84-3.642,12.51,0.2011,2.368,1.762,3.693,4.527,6.565,2.943,3.056,4.301,6.112,9.734,7.357,5.52,1.265,10.53,0.9055,14.03,0.1132,3.509-0.7923,10.19-3.509,12.34-6.565,1.283-1.823,2.49-3.112,1.924-6.112z" fill="url(#radialGradient6423)"/>
   <path id="path6353" d="m440.9,55.33c-6.603,0.1914-21.82,3.828-29.28,9.761-7.465,5.933-16.65,16.27-19.33,26.22-2.68,9.953-4.019,17.8-2.68,26.99,1.34,9.187,5.933,21.25,6.89,23.73,0.957,2.488,2.297,4.019,2.488,5.551,0.5717,4.574-3.062,12.06-5.359,18.76-2.297,6.699-0.957,16.46,0.5742,19.71,1.531,3.254,3.062,8.23,7.465,8.613,4.402,0.3828,9.378-1.531,10.14-1.914,0.7656-0.3828,2.297-1.34,2.297-1.34s2.105,2.68,4.976,3.254c2.871,0.5742,8.996,2.68,14.35,2.68,5.359,0,13.97-1.723,18.37-4.785,4.402-3.062,7.465-5.359,8.804-9.761,1.34-4.402,1.34-9.378,2.297-12.44s-0.957-3.828,1.34-6.316c3.948-4.277,8.039-7.847,10.53-11.1,2.488-3.254,11.87-7.082,16.65-13.78,4.785-6.699,10.14-14.74,9.953-24.12-0.1914-9.378-0.957-17.8-4.019-25.46-3.062-7.656-11.1-16.54-15.31-19.91-4.785-3.828-15.69-9.953-21.44-11.29-5.742-1.34-13.11-3.254-19.71-3.062z" fill-opacity="0.543379" transform="matrix(0.20236882,0,0,0.18164321,29.579283,5.2543921)" filter="url(#filter45474-9)" fill="#000"/>
   <g id="g6355" transform="matrix(0.18777762,0,0,0.18777762,35.264094,2.8938044)">
    <path id="path6357" d="m691.3,198.9c-1.205,27.12-1.808,25.32,3.616,38.58,5.425,13.26,7.233,7.836,7.233,15.67,0,7.836-5.425,12.05-6.027,27.12-0.6027,15.07,4.822,19.89-0.6027,20.49-5.425,0.6028-32.55,2.411-36.16,0.6028-3.616-1.808-5.425-3.616-4.822-8.438,0.6028-4.822,5.425-3.616,7.836-7.836,2.411-4.219,4.822-7.233,5.425-13.86,0.6027-6.63-1.205-13.26-2.411-19.29-1.205-6.027-1.808-12.05-6.63-17.48-4.822-5.425-4.822-5.425-7.233-9.644s4.822-7.233,6.63-12.05c1.808-4.822,4.822-11.45,6.63-18.08s6.63-11.45,12.05-11.45c5.425,0,14.47,15.67,14.47,15.67z" fill="#FFF"/>
    <path id="path6359" opacity="0.67078193" d="m691.3,198.9c-1.205,27.12-1.808,25.32,3.616,38.58,5.425,13.26,7.233,7.836,7.233,15.67,0,7.836-5.425,12.05-6.027,27.12-0.6027,15.07,4.822,19.89-0.6027,20.49-5.425,0.6028-32.55,2.411-36.16,0.6028-3.616-1.808-5.425-3.616-4.822-8.438,0.6028-4.822,5.425-3.616,7.836-7.836,2.411-4.219,4.822-7.233,5.425-13.86,0.6027-6.63-1.205-13.26-2.411-19.29-1.205-6.027-1.808-12.05-6.63-17.48-4.822-5.425-4.822-5.425-7.233-9.644s4.822-7.233,6.63-12.05c1.808-4.822,4.822-11.45,6.63-18.08s6.63-11.45,12.05-11.45c5.425,0,14.47,15.67,14.47,15.67z" fill="url(#linearGradient7486)"/>
   </g>
   <path id="path6361" filter="url(#filter45662-3)" transform="matrix(0.18777762,0,0,0.18777762,35.264094,4.0437865)" d="m690.1,179c-3.014-15.97-5.425-28.93-24.11-42.19-18.68-13.26-37.37-18.08-59.67-18.08s-27.93-0.6028-38.58-0.6028c-10.64,0-11.63,43.68-5.425,57.86,6.21,14.18,3.532,24.44,27.12,29.53,23.59,5.091,3.093,10.07,20.49,18.08,18.99,8.74,34.81,0.1507,50.33-10.55,11.3-7.787,18.08-0.00001,23.81-8.137,6.833-9.71,9.041-9.945,6.027-25.92z" fill="url(#radialGradient6427)"/>
   <path id="path6363" d="m645.5,127.8c21.1,4.219,27.73,15.67,29.53,33.15,1.808,17.48,5.425,36.16,3.014,43.4-2.411,7.233-14.47,9.041-18.68,9.041-4.219,0-7.233-2.411,0.6027-15.67,7.836-13.26,9.041-19.89,6.63-32.55s-4.822-25.32-11.45-29.53c-6.63-4.219-9.644-7.836-9.644-7.836z" fill-opacity="0.21917808" transform="matrix(0.19082704,0,0,0.18011615,33.187363,5.0061874)" filter="url(#filter45658-1)" fill="#0a091a"/>
   <path id="path6365" d="m542.3,189.3c0,6.63,17.19,18.49,15.38,28.73-1.808,10.25-7.836,22.3-17.48,28.93s-19.89,28.33-26.52,37.37c-6.63,9.041-11.78,15.73-15.78,20.57-4.488,5.421-11.24,5.934-26.31,5.332-15.07-0.6028-26.1-0.5005-30.15-0.594-3.217-0.0744-2.987-5.899-0.2621-10.94,1.922-3.557,5.85-6.945,11.88-8.15,6.027-1.205,8.872-1.417,14.84-5.722,7.877-8.556,15.21-22.31,21.07-30.15,3.616-4.822,9.936-12.98,13.58-21.6,1.799-4.251,5.576-11.76,2.088-17.46-4.717-7.713,8.897-11.76,4.677-17.18,3.612-3.407,22.06-9.347,32.98-9.138z" fill-opacity="0.48858451" transform="matrix(0.18777762,0,0,0.18777762,35.264094,4.0437865)" filter="url(#filter45588-9)" fill="#000100"/>
   <path id="path6367" d="m140.1,36.27c-0.5659,1.358-2.15,3.282-2.15,4.527s1.924,2.264,1.585,4.188c-0.3395,1.924-1.471,4.188-3.282,5.433s-3.735,5.32-4.98,7.017c-1.245,1.698-2.211,2.954-2.963,3.862-0.8427,1.018-2.111,1.114-4.94,1.001-2.83-0.1132-4.901-0.09398-5.661-0.1115-0.6041-0.01396-0.561-1.108-0.0492-2.055,0.361-0.668,1.098-1.304,2.23-1.53,1.132-0.2264,1.666-0.2662,2.786-1.074,1.479-1.607,2.857-4.19,3.956-5.661,0.6791-0.9054,1.866-2.437,2.551-4.055,0.3379-0.7983,1.047-2.208,0.392-3.279-0.8857-1.448-0.8896-2.015-1.682-3.033-0.7923-1.019-1.516-1.954-1.403-3.086,0.1132-1.132,1.274-4.293,6.48-4.067,5.206,0.2264,7.696,0.5659,7.13,1.924z" fill="url(#linearGradient6429)"/>
   <path id="path6369" d="m118.3,14.18c-1.24,0.03594-4.097,0.7188-5.499,1.833-1.402,1.114-3.127,3.055-3.63,4.924-0.5032,1.869-0.7547,3.342-0.5032,5.068,0.2516,1.725,1.114,3.989,1.294,4.457,0.1797,0.4672,0.4313,0.7547,0.4672,1.042,0.1074,0.8589-0.575,2.264-1.006,3.522-0.4313,1.258-0.1797,3.091,0.1078,3.702s0.575,1.545,1.402,1.617c0.8266,0.07188,1.761-0.2875,1.905-0.3594,0.1438-0.07188,0.4313-0.2516,0.4313-0.2516s0.3953,0.5032,0.9345,0.611c0.5391,0.1078,1.689,0.5032,2.696,0.5032,1.006,0,2.624-0.3235,3.45-0.8985,0.8266-0.575,1.402-1.006,1.653-1.833,0.2516-0.8266,0.2516-1.761,0.4313-2.336s-0.1797-0.7188,0.2516-1.186c0.7414-0.8032,1.509-1.474,1.977-2.085,0.4672-0.611,2.228-1.33,3.127-2.588,0.8985-1.258,1.905-2.767,1.869-4.528-0.0359-1.761-0.1797-3.342-0.7547-4.78s-2.084-3.105-2.875-3.738c-0.8985-0.7188-2.947-1.869-4.025-2.12-1.078-0.2516-2.462-0.611-3.702-0.575z" fill="url(#radialGradient6431)"/>
   <path id="path6371" d="m404.4,170.7c6.508-10.38,8.795-17.77,9.675-27.79,0.8795-10.03,0.3518-20.58-0.7036-28.5-1.055-7.916-5.805-17.41-10.38-18.82-4.573-1.407-6.684,0.3518-7.388-2.814-0.7036-3.166,0.7094-8.818,5.805-16.36,4.398-6.508,8.091-9.85,15.83-14.42,7.796-4.607,16.06-6.691,21.99-6.86,6.157-0.1759,24.1,1.231,31.31,7.564,7.212,6.332,9.499,7.212,11.08,12.31,1.583,5.101,2.639,16.36,2.639,16.36s-0.7036-12.84-9.499-18.65c-8.795-5.805-11.43-5.629-19-8.619-6.878-2.719-10.03-2.287-12.49,0.7036-3.58,4.347,1.759,5.453,8.091,10.55,6.332,5.101,11.26,5.629,17.06,10.55,7.507,6.37,11.43,11.43,12.66,18.47,1.762,8.668,2.457,19.24-3.518,18.47-7.74-1.231-14.07-7.388-18.29-11.96-4.222-4.573-2.814-6.684-11.26-13.02-6.57-4.928-13.9-2.639-17.24-0.1759-5.611,4.134-5.805,5.453-8.091,14.25-2.287,8.795-2.814,15.13-3.87,23.57-0.961,7.688-0.3518,11.96-0.7036,21.28-0.3819,10.12,6.86,14.42,4.573,16.53-2.287,2.111-7.036,6.157-12.84,2.99-5.805-3.166-5.453-5.629-5.453-5.629z" fill-opacity="0.58904114" transform="matrix(0.18777762,0,0,0.18777762,35.264094,4.0437865)" filter="url(#filter45416-5)" fill="#000"/>
   <path id="path6373" filter="url(#filter45514-9)" transform="matrix(0.18777762,0,0,0.18777762,35.264094,4.0437865)" d="m468,59.42c11.18,5.03,28.81,17.39,36.33,25.15,7.672,7.916,13.59,15.85,18.25,24.04,4.702,8.257,8.018,19,8.018,30.74s-3.354,18.44-9.502,25.71c-6.148,7.266-12.86,11.74-19.56,16.77-6.707,5.03-11.74,6.707-11.74,6.707s-9.353-8.912-13.13-19.67c-3.589-10.21-3.453-22.41,1.374-32.77s5.755-22.15,5.245-25.71c-1.254-8.157-2.278-13.05-8.556-19.34-5.747-5.762-25.17-13.17-24.61-22.68,0.5589-9.502,6.707-13.97,17.89-8.943z" fill="url(#linearGradient6433)"/>
   <path id="path6375" d="m112.5,34.89c0.5033,0.08388,1.644-0.0671,2.214,0.5033,0.5252,0.5252,0.2349,1.309-0.1007,1.812-0.2531,0.3797-1.04,0.7046-1.678,0.6375-0.6375-0.0671-1.208-0.2684-1.577-0.7717-0.2778-0.3788-0.8019-1.234-0.4026-1.778,0.3691-0.5033,1.04-0.4865,1.543-0.4026z" fill="#0b0d1a"/>
   <g id="g6377" transform="matrix(0.26199121,0,0,0.26199121,106.23909,12.779749)">
    <path id="path6379" filter="url(#filter45444-2)" transform="matrix(0.71673252,0,0,0.71673252,-270.90602,-33.344487)" d="m430.3,130.4c3.574-3.931,2.289-5.649,5.539-9.649,2.323-2.859,4.288-3.395,9.113-3.038,5.346,0.396,6.433,1.251,9.649,1.966,8.766,1.672,6.162,2.333,1.608,9.113-2.911,5.657-9.57,6.688-13.58,5.897-3.823-0.7823-5.718-2.68-7.862-3.216s-4.467-1.072-4.467-1.072z" fill="#2b1b26"/>
    <rect id="rect6381" style="color:#000000;enable-background:accumulate;" fill-rule="nonzero" rx="5.763" ry="4.4824" height="8.9647" width="14.215" y="52.701" x="40.695" fill="#c9d4cb"/>
    <rect id="rect6383" style="color:#000000;enable-background:accumulate;" fill-rule="nonzero" rx="4.7766" ry="3.842" height="7.684" width="11.782" y="52.573" x="43.384" fill="#1d212f"/>
   </g>
   <g id="g6385" transform="matrix(0.26199121,0,0,0.26199121,106.23909,12.779749)">
    <path id="path6387" filter="url(#filter45444-2)" transform="matrix(0.48405581,0.37783907,-0.20729886,0.59676299,-152.29715,-168.73006)" d="m388.1,123.9c1.239-2.741,0.549-2.24,3.799-6.24,2.323-2.859,7.114-6.321,11.94-5.964,5.346,0.396,0.9722-0.5314,6.031,1.394,5.058,1.925,6.583,3.344,2.029,10.12-2.911,5.657-10.51,9.43-14.52,8.638-3.823-0.7823-3.81-0.7158-5.954-1.252-2.144-0.536-3.322-6.7-3.322-6.7z" fill="#2b1b26"/>
    <rect id="rect6389" style="color:#000000;enable-background:accumulate;" transform="matrix(0.9479671,0.31836831,-0.29251932,0.95625961,0,0)" fill-rule="nonzero" rx="4.3521" ry="4.4637" height="8.9274" width="10.735" y="42.952" x="27.164" fill="#c9d4cb"/>
    <rect id="rect6391" style="color:#000000;enable-background:accumulate;" transform="matrix(0.95227979,0.30522649,-0.30522649,0.95227979,0,0)" fill-rule="nonzero" rx="3.7624" ry="3.842" height="7.684" width="9.2807" y="43.344" x="29.388" fill="#1d212f"/>
   </g>
   <path id="path6393" opacity="0.67078193" d="m502.7,188.2c3.55,9.399,9.848,23.95,10.16,30.58,0.7717,16.41-1.463,20.46-6.134,29.76-6.181,12.3-8.479,15.83-15.52,25.71-6.79,9.532-9.726,14.14-16.36,23.18-6.63,9.041,24.54,3.7,20.53,8.539-4.488,5.421-11.24,5.934-26.31,5.332-15.07-0.6028-26.1-0.5005-30.15-0.594-3.217-0.0744-2.987-5.899-0.2621-10.94,1.922-3.557,5.85-6.945,11.88-8.15,6.027-1.205,8.872-1.417,14.84-5.722,7.877-8.556,15.21-22.31,21.07-30.15,3.616-4.822,9.936-12.98,13.58-21.6,1.799-4.251,5.576-11.76,2.088-17.46-4.717-7.713-4.737-10.73-8.957-16.15-4.219-5.425-7.086-10.34-9.728-15.79-4.542-9.372-13.32-24.36,14.25-21.23,3.752,0.4254,1.454,15.29,5.004,24.69z" transform="matrix(0.18777762,0,0,0.18777762,35.264094,4.0437865)" filter="url(#filter6012-3)" fill="url(#linearGradient6435)"/>
   <path id="path6395" d="m135.7,58.62c-0.8376,0.335-1.938,0.1914-2.034,1.244-0.0957,1.053,0.2393,1.46,0.2393,1.46l1.388-0.02395-0.7419-0.7419c-0.1197-0.9094-0.359-1.292,0.1675-1.508,0.5265-0.2154,0.9812-0.4308,0.9812-0.4308z" fill="#151314"/>
   <path id="path6397" d="m133,58.69c-0.7658,0.4308-0.7419,0.335-0.8854,0.8615-0.1436,0.5265-0.1197,0.7658-0.0479,1.125,0.0718,0.359,0.1197,0.4547,0.1197,0.4547l0.5504,0.02392s-0.359-0.5743-0.3829-1.005c-0.0239-0.4308-0.0718-0.5743,0.0957-0.8376,0.1675-0.2632,0.5504-0.6222,0.5504-0.6222z" fill="#1e141a"/>
   <path id="path6399" d="m136.8,58.3c-0.6316,0.9306-0.2844,1.484,0.1427,2.006,0.4271,0.5213,0.874,1.056,0.874,1.056s0.3854-0.05654,0.6528-0.28c0.2673-0.2235,0.4817-0.454,0.4817-0.454s-0.307,0.1966-0.9469-0.2667c-0.64-0.4633-1.167-0.9655-1.209-1.457-0.0424-0.4915,0.005-0.604,0.005-0.604z" fill="#151314"/>
   <path id="path6401" d="m120.8,59.48c-1.962,0.4786-2.01,1.149-2.226,1.412-0.2154,0.2632-0.9812,1.292-0.9812,1.292l0.7179,0.02392s0.2872-0.6701,0.7179-1.292c0.4308-0.6222,1.771-1.436,1.771-1.436z" fill="#2b292b"/>
   <path id="path6403" d="m123.1,59.86c-1.125,0.3829-1.364,0.6461-1.867,1.125-0.5026,0.4786-0.6701,1.22-0.6701,1.22h0.6701s-0.0957-0.4786,0.3111-1.029,1.556-1.316,1.556-1.316z" fill="#2b292b"/>
   <path id="path6405" d="m126.7,51.65c-1.533,2.371-4.231,6.255-4.231,6.255s0.6731,0.03186,2.33-0.3475c1.697-0.3884,2.78-0.8994,3.066-1.574,0.3892-0.9174,0.5174-3.456,0.1022-3.945-0.5571-0.6566-1.267-0.3884-1.267-0.3884z" fill="url(#linearGradient6437)"/>
   <path id="path6407" filter="url(#filter45514-9)" transform="matrix(0.18777762,0,0,0.18777762,35.264094,4.0437865)" d="m522.6,108.6c4.702,8.257,8.018,19,8.018,30.74s-3.354,18.44-9.502,25.71c-6.148,7.266-12.86,11.74-19.56,16.77-6.707,5.03-11.74,6.707-11.74,6.707s-9.353-8.912-13.13-19.67c-3.589-10.21-3.453-22.41,1.374-32.77s5.755-22.15,5.245-25.71c3.364-21.03,2.67-28.57,39.3-1.773z" fill="url(#linearGradient6439)"/>
  </g>
 </g>
 <g id="g6409" transform="translate(62.233051,-30.818789)">
  <path id="path6411" opacity="0.2" d="m114.5,68.54c0,28.46-9.954,38.42-38.42,38.42-28.46,0-38.42-9.956-38.42-38.42,0-28.46,9.956-38.42,38.42-38.42,28.47,0,38.42,9.956,38.42,38.42z" fill="url(#linearGradient6441)"/>
  <g id="g6413" transform="translate(-34.207059,5.6313165)">
   <path id="path6415" opacity="0.5" d="m110.3,100.4c-28.3,0-38.3-9.848-38.42-37.93-0.000972,0.1644-0.0058,0.321-0.0058,0.4863,0,28.46,9.956,38.42,38.42,38.42,28.47,0,38.42-9.956,38.42-38.42,0-0.1654-0.005-0.322-0.006-0.4863-0.1148,28.09-10.11,37.93-38.42,37.93z"/>
   <path id="path6417" opacity="0.25" d="m110.3,24.48c-28.46,0-38.42,9.956-38.42,38.42,0,28.46,9.956,38.42,38.42,38.42,28.47,0,38.42-9.956,38.42-38.42,0-28.46-9.954-38.42-38.42-38.42zm0,75.87c-28,0-37.45-9.45-37.45-37.45s9.45-37.45,37.45-37.45,37.45,9.45,37.45,37.45-9.45,37.45-37.45,37.45z" fill="url(#linearGradient6443)"/>
  </g>
 </g>
</svg>